SplineFontDB: 3.2
FontName: FRBKulitan
FullName: FRB Kulitan
FamilyName: FRBKulitan
Weight: Regular
Copyright: Copyright (c) 2020, Fredrick R. Brennan <copypaste@kittens.ph>
UComments: "2020-10-29: Created with FontForge (http://fontforge.org)"
Version: 001.000
ItalicAngle: 0
UnderlinePosition: -100
UnderlineWidth: 50
Ascent: 800
Descent: 200
InvalidEm: 0
LayerCount: 2
Layer: 0 0 "Back" 1
Layer: 1 0 "Fore" 0
HasVMetrics: 1
XUID: [1021 640 1538074639 4062299]
OS2Version: 0
OS2_WeightWidthSlopeOnly: 0
OS2_UseTypoMetrics: 1
CreationTime: 1604022527
ModificationTime: 1604043332
OS2TypoAscent: 0
OS2TypoAOffset: 1
OS2TypoDescent: 0
OS2TypoDOffset: 1
OS2TypoLinegap: 0
OS2WinAscent: 0
OS2WinAOffset: 1
OS2WinDescent: 0
OS2WinDOffset: 1
HheadAscent: 0
HheadAOffset: 1
HheadDescent: 0
HheadDOffset: 1
OS2Vendor: 'PfEd'
Lookup: 1 0 0 "'valt' Alternate Vertical Metrics in Latin lookup 0" { "'valt' Alternate Vertical Metrics in Latin lookup 0-1"  } ['valt' ('DFLT' <'dflt' > 'latn' <'dflt' > ) ]
Lookup: 260 0 0 "'mark' Mark Positioning in Latin lookup 0" { "'mark' Mark Positioning in Latin lookup 0-1"  } ['mark' ('DFLT' <'dflt' > 'latn' <'dflt' > ) ]
MarkAttachClasses: 1
DEI: 91125
Encoding: Custom
UnicodeInterp: none
NameList: AGL For New Fonts
DisplaySize: -96
AntiAlias: 1
FitToEm: 0
WinInfo: 0 13 7
BeginPrivate: 0
EndPrivate
AnchorClass2: "bottom" "'mark' Mark Positioning in Latin lookup 0-1" "top" "'mark' Mark Positioning in Latin lookup 0-1"
BeginChars: 47 47

StartChar: kuli_a
Encoding: 0 84992 0
Width: 850
Flags: MW
AnchorPoint: "bottom" 446 -22 basechar 0
AnchorPoint: "top" 560 647 basechar 0
LayerCount: 2
Back
SplineSet
125 114 m 4
 176.63898182 131.521793047 261.916143451 204.17662552 312 248 c 1028
220 614 m 4
 233.244284914 444.617543668 232.095557667 215.843732565 448 206 c 4
 607.931720407 198.70823209 737 312 737 312 c 1028
EndSplineSet
Fore
SplineSet
125 81.5063729074 m 0
 116.680400374 81.5063729074 108.360800747 84.6772584754 102.019029611 91.0190296114 c 0
 95.6772584754 97.3608007474 92.5063729074 105.680400374 92.5063729074 114 c 0
 92.5063729074 122.319599626 95.6772584754 130.639199253 102.019029611 136.980970389 c 0
 105.659603366 140.621544143 109.951966329 143.217159243 114.521950681 144.76781569 c 0
 131.092323881 150.390363611 159.505690061 167.545079134 188.517312769 188.87078908 c 0
 224.870448681 215.593059666 263.033299709 248.34054766 290.61898995 272.478026621 c 0
 296.726114119 277.821760269 304.363057059 280.493627093 312 280.493627093 c 0
 320.319599626 280.493627093 328.639199253 277.322741525 334.980970389 270.980970389 c 0
 341.322741525 264.639199253 344.493627093 256.319599626 344.493627093 248 c 0
 344.493627093 238.897282675 340.380548231 229.646569287 333.38101005 223.521973379 c 0
 305.317970793 198.966814029 266.107829925 165.22446742 226.968473169 136.454116376 c 0
 195.586101743 113.385729019 164.808993292 93.1845635416 135.478049319 83.2321843105 c 0
 132.087256933 82.0816433751 128.543628467 81.5063729074 125 81.5063729074 c 0
187.506372907 614 m 0
 187.506372907 622.319599626 190.677258475 630.639199253 197.019029611 636.980970389 c 0
 203.360800747 643.322741525 211.680400374 646.493627093 220 646.493627093 c 0
 228.319599626 646.493627093 236.639199253 643.322741525 242.980970389 636.980970389 c 0
 248.673837889 631.288102888 251.811524851 624.001450698 252.394031273 616.551719038 c 0
 258.402069381 539.714331512 261.408839888 460.444591223 279.091731877 392.339831084 c 0
 290.795240898 347.264360677 308.511994688 309.702774622 334.513638465 283.701130845 c 0
 362.078256766 256.136512544 401.985674986 238.157167226 462.824338415 238.157167226 c 0
 602.246533342 238.157167226 715.580475468 336.444273213 715.580475468 336.444273213 c 1
 721.693989008 341.810509133 729.346994504 344.493627093 737 344.493627093 c 0
 745.319599626 344.493627093 753.639199253 341.322741525 759.980970389 334.980970389 c 0
 766.322741525 328.639199253 769.493627093 320.319599626 769.493627093 312 c 0
 769.493627093 302.916408632 765.402697102 293.685320061 758.419524532 287.555726787 c 0
 756.959118463 286.273831613 715.116023943 249.57286232 648.284640888 217.843348019 c 0
 598.681427207 194.293246167 534.672541267 173.165938095 462.985792027 173.165938095 c 0
 385.949122743 173.165938095 329.19918465 197.091703106 288.551697688 237.739190068 c 0
 250.824877404 275.466010353 229.54838934 324.507162418 216.197840489 375.926123055 c 0
 195.919155595 454.028447686 193.850852362 531.581852798 187.605968727 611.448280962 c 0
 187.539571514 612.297441417 187.506372907 613.148720708 187.506372907 614 c 0
EndSplineSet
EndChar

StartChar: kuli_i
Encoding: 1 84993 1
Width: 850
Flags: MW
AnchorPoint: "top" 480 752 basechar 0
AnchorPoint: "bottom" 446 -22 basechar 0
LayerCount: 2
Back
SplineSet
151 415 m 4
 151 453 209.381835938 472 236 472 c 4
 435.557617188 472 348.498046875 166 504 166 c 4
 658 166 610 407.862304688 610 518 c 4
 610 617.71484375 666.3046875 648.245117188 754 648 c 1028
56 216 m 5
 274 214 l 1029
EndSplineSet
Fore
SplineSet
183.493627093 415 m 4
 183.493627093 406.680400374 180.322741525 398.360800747 173.980970389 392.019029611 c 4
 167.639199253 385.677258475 159.319599626 382.506372907 151 382.506372907 c 4
 142.680400374 382.506372907 134.360800747 385.677258475 128.019029611 392.019029611 c 4
 121.677258475 398.360800747 118.506372907 406.680400374 118.506372907 415 c 4
 118.506372907 436.861750928 128.916932498 454.621191339 141.096374624 466.800633465 c 4
 153.981699985 479.685958826 169.071399942 487.771708973 183.698392458 493.534187711 c 4
 202.0712249 500.772384912 219.961099258 504.493627093 236 504.493627093 c 4
 285.633210145 504.493627093 324.500348383 487.350155429 352.112332806 459.738171006 c 4
 389.107754526 422.742749285 406.13337215 367.974428621 421.892993059 313.849452167 c 4
 429.189618382 288.789859927 436.123640008 265.40653596 444.2574974 246.87248402 c 4
 450.782333701 232.004795904 457.980133735 220.621240947 465.368909062 213.23246562 c 4
 474.761368776 203.840005905 485.022786655 198.493627093 504 198.493627093 c 4
 527.955972809 198.493627093 541.435537628 205.267656521 551.724907069 215.557025963 c 4
 566.306092291 230.138211185 576.903399479 257.991907535 581.474447323 295.34320104 c 4
 583.697936499 313.511944754 584.531111749 333.287519204 584.531111749 353.643613509 c 4
 584.531111749 384.93280913 582.562607987 417.593571561 580.64891378 447.898734542 c 4
 579.044367652 473.308244464 577.506372907 497.068558528 577.506372907 518 c 4
 577.506372907 567.930177916 590.430073927 608.543912427 618.670560831 636.784399332 c 4
 653.00336939 671.117207891 701.570902613 680.49516252 752.904375811 680.49516252 c 4
 762.125264518 680.49516252 770.267297191 677.694643586 776.980970389 670.980970389 c 4
 783.322741525 664.639199253 786.493627093 656.319599626 786.493627093 648 c 4
 786.493627093 639.680400374 783.322741525 631.360800747 776.980970389 625.019029611 c 4
 770.311811303 618.349870526 762.215918509 615.507772811 753.000219963 615.507772811 c 4
 708.465979425 615.507772811 680.104874098 606.294831044 664.632501608 590.822458555 c 4
 652.163649071 578.353606018 642.493627093 557.399637101 642.493627093 518 c 4
 642.493627093 500.324521821 643.904597064 477.385182372 645.506027082 452.025019005 c 4
 647.41139343 421.851735573 649.62482588 388.266323623 649.62482588 354.348166722 c 4
 649.62482588 331.877581371 648.653353283 309.260954699 645.977237313 287.393672519 c 4
 640.662870477 243.968514389 628.777056563 200.685293902 597.686847846 169.595085185 c 4
 574.600289193 146.508526533 542.32033577 133.506372907 504 133.506372907 c 4
 469.238170494 133.506372907 440.244930969 146.432562158 419.406968284 167.270524843 c 4
 370.333822903 216.343670225 363.762688783 304.763606162 333.932094804 370.942556039 c 4
 325.996108578 388.548482192 316.821509685 403.105112572 306.150392028 413.776230229 c 4
 290.626407727 429.30021453 270.738785625 439.506372907 236 439.506372907 c 4
 231.243310529 439.506372907 218.643951883 437.429191853 207.580322299 433.070542583 c 4
 198.658145195 429.555544145 190.872448958 424.652826245 187.058315401 420.838692688 c 4
 183.493627093 417.27400438 183.493627093 415.700364805 183.493627093 415 c 4
23.5063729074 216 m 4
 23.5063729074 224.319599626 26.6772584754 232.639199253 33.0190296114 238.980970389 c 4
 39.3608007474 245.322741525 47.680763114 248.571328282 56.0000126404 248.495004892 c 6
 274.300378681 246.49224924 l 6
 282.519567902 246.416843835 290.715523226 243.246417551 296.980970389 236.980970389 c 4
 303.322741525 230.639199253 306.493627093 222.319599626 306.493627093 214 c 4
 306.493627093 205.680400374 303.322741525 197.360800747 296.980970389 191.019029611 c 4
 290.639199253 184.677258475 282.319236886 181.428671718 273.99998736 181.504995108 c 6
 55.6996213192 183.50775076 l 6
 47.4804320981 183.583156165 39.2844767736 186.753582449 33.0190296114 193.019029611 c 4
 26.6772584754 199.360800747 23.5063729074 207.680400374 23.5063729074 216 c 4
EndSplineSet
EndChar

StartChar: kuli_u
Encoding: 2 84994 2
Width: 850
Flags: MW
AnchorPoint: "top" 180 507 basechar 0
AnchorPoint: "bottom" 446 -22 basechar 0
LayerCount: 2
Back
SplineSet
142.400390625 264.400390625 m 4
 156 276 177 291.599609375 224 291.599609375 c 4
 312 291.599609375 329.0390625 82 360 82 c 4
 530.895507812 82 710.400390625 265.415039062 710.400390625 429.200195312 c 4
 710.400390625 571.09375 577.985351562 674 443.200195312 674 c 4
 418.431350468 674 395.950679843 665.536342627 379.200195312 656.400390625 c 1028
EndSplineSet
Fore
SplineSet
443.200195312 706.493627093 m 4
 596.116708277 706.493627093 742.894017718 589.401236865 742.894017718 429.200195312 c 4
 742.894017718 335.420326693 692.876120524 241.808691878 622.056146698 170.988718051 c 4
 551.362963268 100.295534622 456.993803484 49.5063729074 360 49.5063729074 c 4
 345.783826859 49.5063729074 335.797194928 56.833628171 330.188316616 62.4425064826 c 4
 320.281240854 72.3495822445 316.187815369 82.245485297 311.78510642 92.7711540619 c 4
 306.254033982 105.994430247 301.320027128 121.120907703 295.976292871 137.298013127 c 4
 283.555667458 174.899015919 267.613065489 225.258095021 243.860022249 249.011138261 c 4
 235.86983947 257.001321039 230.088373986 259.105982282 224 259.105982282 c 4
 192.704993661 259.105982282 178.258726432 252.267179677 163.468826712 239.652327682 c 4
 157.414792568 234.488618249 149.907591596 231.906763532 142.400390625 231.906763532 c 4
 134.080790999 231.906763532 125.761191372 235.0776491 119.419420236 241.419420236 c 4
 113.0776491 247.761191372 109.906763532 256.080790999 109.906763532 264.400390625 c 4
 109.906763532 273.658872264 114.198148527 283.06376681 121.331954538 289.148453568 c 4
 129.883928763 296.442748401 143.826458417 307.307640667 163.996116705 314.621516798 c 4
 180.142279046 320.476401877 199.907050526 324.093236468 224 324.093236468 c 4
 251.153985729 324.093236468 273.551882682 311.243159382 289.821963026 294.973079038 c 4
 323.485035257 261.310006807 342.01922969 205.161942307 357.678113833 157.757747524 c 4
 363.511885762 140.097149341 367.325734304 127.472722348 373.082356011 114.912752947 c 5
 443.146636061 119.359735398 517.994196615 158.850649523 576.09420592 216.950658828 c 4
 637.981730242 278.838183149 677.906763532 359.02119237 677.906763532 429.200195312 c 4
 677.906763532 551.904374554 560.71050591 641.506372907 443.200195312 641.506372907 c 4
 425.929842974 641.506372907 408.372967103 635.284663962 394.763256803 627.861734802 c 4
 389.929045396 625.225087289 384.564620354 623.906763532 379.200195313 623.906763532 c 4
 370.880595686 623.906763532 362.56099606 627.0776491 356.219224924 633.419420236 c 4
 349.877453788 639.761191372 346.70656822 648.080790999 346.70656822 656.400390625 c 4
 346.70656822 668.302749602 354.038414507 679.703768699 363.637133822 684.939046448 c 4
 383.528392583 695.788021292 410.932857962 706.493627093 443.200195312 706.493627093 c 4
EndSplineSet
EndChar

StartChar: kuli_ka
Encoding: 3 84995 3
Width: 850
Flags: MW
AnchorPoint: "top" 347 747 basechar 0
AnchorPoint: "bottom" 446 -22 basechar 0
LayerCount: 2
Back
SplineSet
97.640625 184.479492188 m 0
 99.986328125 184.479492188 102.333984375 184.479492188 104.6796875 184.479492188 c 0
 169.359375 193.446289062 752.359375 304.159179688 752.359375 304.159179688 c 1025
199.719726562 457.279296875 m 0
 307.799804688 479.713867188 406.4609375 522.221679688 518.279296875 543.520507812 c 1024
EndSplineSet
Fore
SplineSet
97.640625 151.985865095 m 6
 89.3210253737 151.985865095 81.0014257474 155.156750663 74.6596546114 161.498521799 c 4
 68.3178834754 167.840292935 65.1469979074 176.159892561 65.1469979074 184.479492188 c 4
 65.1469979074 192.799091814 68.3178834754 201.11869144 74.6596546114 207.460462576 c 4
 81.0014257474 213.802233712 89.3210253737 216.97311928 97.640625 216.97311928 c 6
 102.349309527 216.97311928 l 5
 174.812970683 227.64036175 746.259871008 336.079213883 746.259871008 336.079213883 c 6
 748.273515838 336.461609148 750.316445419 336.65280678 752.359375 336.65280678 c 4
 760.678974626 336.65280678 768.998574253 333.481921212 775.340345389 327.140150076 c 4
 781.682116525 320.79837894 784.853002093 312.478779314 784.853002093 304.159179688 c 4
 784.853002093 295.839580061 781.682116525 287.519980435 775.340345389 281.178209299 c 4
 770.555835711 276.393699622 764.645574951 273.414011686 758.458878992 272.239145492 c 4
 757.821157855 272.118040946 176.736736993 161.662397116 109.172179412 152.295659471 c 4
 107.682431273 152.089129887 106.181059387 151.985865095 104.6796875 151.985865095 c 6
 97.640625 151.985865095 l 6
199.719726562 424.785669782 m 4
 191.400126936 424.785669782 183.08052731 427.95655535 176.738756174 434.298326486 c 4
 170.396985038 440.640097622 167.22609947 448.959697249 167.22609947 457.279296875 c 4
 167.22609947 465.598896501 170.396985038 473.918496128 176.738756174 480.260267264 c 4
 181.383012952 484.904524042 187.087987748 487.848221106 193.076887022 489.091358456 c 4
 301.575074298 511.612717187 399.712476722 554.018107636 512.162022289 575.437162228 c 4
 514.181417842 575.821810679 516.230357358 576.014134905 518.279296875 576.014134905 c 4
 526.598896501 576.014134905 534.918496128 572.843249337 541.260267264 566.501478201 c 4
 547.6020384 560.159707065 550.772923968 551.840107439 550.772923968 543.520507812 c 4
 550.772923968 535.200908186 547.6020384 526.88130856 541.260267264 520.539537424 c 4
 536.480338773 515.759608933 530.576813989 512.781047591 524.396571461 511.603853397 c 4
 414.792292743 490.726756763 316.021346937 448.229502603 206.362566103 425.467235294 c 4
 204.173573765 425.012858286 201.946650164 424.785669782 199.719726562 424.785669782 c 4
EndSplineSet
EndChar

StartChar: kuli_ga
Encoding: 4 84996 4
Width: 850
Flags: MW
AnchorPoint: "top" 480 752 basechar 0
AnchorPoint: "bottom" 427 180 basechar 0
LayerCount: 2
Back
SplineSet
115 443 m 4
 175 499 277.313476562 569 409 569 c 4
 573 569 644.829101562 523.170898438 721 447 c 1028
EndSplineSet
Fore
SplineSet
115 410.506372907 m 0
 106.680400374 410.506372907 98.3608007474 413.677258475 92.0190296114 420.019029611 c 0
 85.6772584754 426.360800747 82.5063729074 434.680400374 82.5063729074 443 c 0
 82.5063729074 451.718292067 86.1626293751 460.541858508 92.8375504925 466.771784884 c 0
 156.010546706 525.733248017 265.309465465 601.493627093 409 601.493627093 c 0
 484.530350704 601.493627093 543.387829473 592.094239419 592.897281876 573.649452587 c 0
 654.913563884 550.545236195 700.272898074 513.689042704 743.980970389 469.980970389 c 0
 750.322741525 463.639199253 753.493627093 455.319599626 753.493627093 447 c 0
 753.493627093 438.680400374 750.322741525 430.360800747 743.980970389 424.019029611 c 0
 737.639199253 417.677258475 729.319599626 414.506372907 721 414.506372907 c 0
 712.680400374 414.506372907 704.360800747 417.677258475 698.019029611 424.019029611 c 0
 657.092770329 464.945288894 620.497894449 493.993922755 570.142455778 512.753882461 c 0
 529.754531639 527.800436507 479.247427074 536.506372907 409 536.506372907 c 0
 289.31748766 536.506372907 193.989453294 472.266751983 137.162449508 419.228215116 c 0
 130.932562216 413.413653644 122.966281108 410.506372907 115 410.506372907 c 0
EndSplineSet
EndChar

StartChar: kuli_nga
Encoding: 5 84997 5
Width: 850
Flags: MW
AnchorPoint: "top" 480 752 basechar 0
AnchorPoint: "bottom" 446 -22 basechar 0
LayerCount: 2
Back
SplineSet
298.32421875 427.247070312 m 4
 298.32421875 427.247070312 368.124023438 438.247070312 379.124023438 438.247070312 c 4
 455.080078125 438.247070312 451.723632812 394.247070312 451.723632812 350.247070312 c 5
 453.923828125 362.346679688 473 413.48046875 520.040039062 413.48046875 c 4
 570.916992188 413.48046875 558 311 671 311 c 5
 737 311 804 357.48046875 804 438 c 4
 804 505.3203125 772 546 722 559 c 1028
97.595703125 606.612304688 m 4
 208.124023438 588.947265625 285.124023438 510.846679688 285.124023438 420.647460938 c 4
 285.124023438 309.546875 225.723632812 252.985351562 108.024414062 198.447265625 c 1028
EndSplineSet
Fore
SplineSet
379.124023438 405.75344322 m 4
 371.134196768 405.75344322 301.791566981 394.75344322 298.32421875 394.75344322 c 4
 290.004619124 394.75344322 281.685019497 397.924328788 275.343248361 404.266099924 c 4
 269.001477225 410.60787106 265.830591657 418.927470686 265.830591657 427.247070312 c 4
 265.830591657 435.566669939 269.001477225 443.886269565 275.343248361 450.228040701 c 4
 280.386962643 455.271754983 286.68170902 458.309795044 293.23252121 459.342160886 c 4
 299.243869532 460.289510693 365.661059799 470.740697405 379.124023438 470.740697405 c 4
 412.541570147 470.740697405 440.054152574 463.403190808 459.163800107 444.293543275 c 4
 463.358566399 440.098776983 466.83944525 435.611391239 469.727119177 430.983538468 c 5
 483.261238135 439.755977796 500.187749458 445.974095843 520.040039062 445.974095843 c 4
 539.98314712 445.974095843 556.655460299 436.557809567 567.496886261 425.716383605 c 4
 586.928281648 406.284988219 594.760422897 381.547876796 612.28786093 364.020438763 c 4
 623.512168055 352.796131638 638.085851197 343.493627093 671 343.493627093 c 4
 698.750462724 343.493627093 726.930021464 354.502162505 745.741754457 373.313895498 c 4
 761.335551543 388.907692584 771.506372907 409.921823078 771.506372907 438 c 4
 771.506372907 473.152547095 761.511809731 495.20912967 747.870582659 508.850356743 c 4
 739.260247386 517.460692015 728.098215887 523.833734249 713.782613011 527.555790997 c 4
 708.372019253 528.962545374 703.254434311 531.783624912 699.019029611 536.019029611 c 4
 692.677258475 542.360800747 689.506372907 550.680400374 689.506372907 559 c 4
 689.506372907 567.319599626 692.677258475 575.639199253 699.019029611 581.980970389 c 4
 705.360800747 588.322741525 713.680400374 591.493627093 722 591.493627093 c 4
 724.763285688 591.493627093 727.526571376 591.143821063 730.217386989 590.444209003 c 4
 754.308527488 584.180512474 776.242958792 572.401862164 793.832523436 554.81229752 c 4
 822.208322994 526.436497962 836.493627093 485.776998583 836.493627093 438 c 4
 836.493627093 392.724611522 818.861888443 354.510147929 791.703695234 327.351954721 c 4
 759.41048874 295.058748226 715.12331397 278.506372907 671 278.506372907 c 4
 622.941055019 278.506372907 588.86965084 295.514767299 566.325920153 318.058497986 c 4
 551.565830951 332.818587188 542.293392226 348.373426452 535.042371246 360.186137484 c 4
 528.950612873 370.110282173 524.074141677 377.215246635 521.534945484 379.754442828 c 4
 520.83721224 380.452176072 520.369191802 380.815224991 520.040039062 380.986841657 c 4
 511.365014824 380.986841657 505.41152994 377.851592531 499.324163638 371.764226229 c 4
 490.936385459 363.37644805 484.975771494 349.162954069 483.690095423 344.397358757 c 4
 482.548631516 338.120067231 479.553467442 332.114964165 474.704603201 327.266099924 c 4
 468.362832065 320.924328788 460.043232439 317.75344322 451.723632812 317.75344322 c 4
 443.404033186 317.75344322 435.08443356 320.924328788 428.742662424 327.266099924 c 4
 422.400891288 333.60787106 419.23000572 341.927470686 419.23000572 350.247070312 c 4
 419.23000572 353.299897858 419.247251361 356.243022212 419.247251361 359.24668116 c 4
 419.247251361 374.143693308 418.651050198 392.88241163 413.20185933 398.331602498 c 4
 411.387062071 400.146399757 403.969704098 405.75344322 379.124023438 405.75344322 c 4
65.1020760324 606.612304688 m 4
 65.1020760324 614.931904314 68.2729616004 623.25150394 74.6147327364 629.593275076 c 4
 80.9565038724 635.935046212 89.2761034987 639.10593178 97.595703125 639.10593178 c 4
 99.3222012554 639.10593178 101.048699386 638.969376675 102.757521692 638.696266465 c 4
 164.311775063 628.858441307 217.481058648 602.119175455 255.914305483 563.68592862 c 4
 294.21962072 525.380613383 317.61765053 475.26942691 317.61765053 420.647460938 c 4
 317.61765053 351.242042394 295.391954287 296.081848616 252.055609788 252.745504117 c 4
 218.651961725 219.341856055 174.921449849 193.619199772 121.704895206 168.960335752 c 4
 117.379038542 166.955870939 112.701726302 165.953638532 108.024414062 165.953638532 c 4
 99.7048144362 165.953638532 91.3852148099 169.1245241 85.0434436739 175.466295236 c 4
 78.7016725379 181.808066372 75.5307869699 190.127665999 75.5307869699 198.447265625 c 4
 75.5307869699 211.195777762 83.8337636895 223.064116335 94.3439329186 227.934195498 c 4
 144.277804735 251.071968384 181.309233374 273.923009258 206.09366901 298.707444894 c 4
 237.359617488 329.973393372 252.630396345 365.219157798 252.630396345 420.647460938 c 4
 252.630396345 456.110673225 237.625717094 490.050635455 209.952364706 517.723987843 c 4
 182.239896691 545.436455858 141.547694436 566.67879478 92.4338845584 574.52834291 c 4
 85.9082829945 575.57128834 79.6404482325 578.605618803 74.6147327364 583.631334299 c 4
 68.2729616004 589.973105435 65.1020760324 598.292705061 65.1020760324 606.612304688 c 4
EndSplineSet
EndChar

StartChar: kuli_ta
Encoding: 6 84998 6
Width: 850
Flags: MW
AnchorPoint: "top" 480 752 basechar 0
AnchorPoint: "bottom" 446 -22 basechar 0
LayerCount: 2
Back
SplineSet
153 589 m 4
 174.037109375 606.219726562 195 613 229 613 c 4
 256 613 258 572.8515625 258 551 c 4
 258 444.391601562 168 348.345703125 168 242 c 4
 168 135 489 135 564 135 c 4
 723 135 661 217 715 301 c 1028
EndSplineSet
Fore
SplineSet
225.506372907 551 m 0
 225.506372907 560.574735359 224.943695828 572.615131437 222.553977625 580.406277791 c 1
 209.580513757 579.986015577 200.646605176 578.261637721 193.404135849 575.598697578 c 0
 186.664455289 573.120624824 180.714637346 569.683473444 173.56149499 563.828336541 c 0
 167.598065035 558.947027452 160.299032518 556.506372907 153 556.506372907 c 0
 144.680400374 556.506372907 136.360800747 559.677258475 130.019029611 566.019029611 c 0
 123.677258475 572.360800747 120.506372907 580.680400374 120.506372907 589 c 0
 120.506372907 598.512619872 125.081589026 608.149729584 132.43850501 614.171663459 c 0
 143.985015431 623.622950167 156.705529278 631.367994003 170.908985721 636.590377782 c 0
 188.70369091 643.133206289 207.782881407 645.493627093 229 645.493627093 c 0
 244.026752102 645.493627093 258.160952799 639.112147198 267.644142487 629.62895751 c 0
 280.240251384 617.032848613 284.479674444 602.604185036 287.021708866 590.661651549 c 0
 290.277189029 575.367334318 290.493627093 561.064099883 290.493627093 551 c 0
 290.493627093 488.41043801 265.016850486 433.409223429 242.655053761 383.089498862 c 0
 220.016299014 332.146548374 200.493627093 285.877727525 200.493627093 242 c 0
 200.493627093 236.808604071 201.933828989 232.404747265 208.431387343 225.907188911 c 0
 216.396385862 217.942190392 232.572473815 208.507052601 254.61497431 200.750045273 c 0
 282.0438252 191.097519809 317.449089516 183.83879472 354.4195707 178.846652825 c 0
 437.810723782 167.586305228 528.483353663 167.493627093 564 167.493627093 c 0
 615.84552902 167.493627093 633.911371107 177.377608049 640.316796249 183.783033192 c 0
 646.68183364 190.148070582 650.638104904 202.521206318 655.490585618 227.908436051 c 0
 660.118192742 252.119171159 666.165341173 285.146046222 687.645751762 318.56001825 c 0
 693.207161565 327.211100164 704.038406648 333.493627093 715 333.493627093 c 0
 723.319599626 333.493627093 731.639199253 330.322741525 737.980970389 323.980970389 c 0
 744.322741525 317.639199253 747.493627093 309.319599626 747.493627093 301 c 0
 747.493627093 294.884853985 745.780500808 288.76970797 742.354248238 283.43998175 c 0
 728.390350561 261.718363142 723.981305037 240.040477126 719.31609387 215.63300502 c 0
 714.875949482 192.403038272 710.702922938 162.245278326 686.278737026 137.821092415 c 0
 660.445499004 111.987854392 621.429047497 102.506372907 564 102.506372907 c 0
 563.452338365 102.506372907 562.891558932 102.506351582 562.31787462 102.506351582 c 0
 525.072317755 102.506351582 433.43201888 102.596239353 345.663529378 114.447660797 c 0
 305.962224154 119.808547179 266.922561879 127.504196268 232.97016064 139.452433504 c 0
 205.907659433 148.976036337 181.339497339 161.075197361 162.469446566 179.945248134 c 0
 146.749407914 195.665286786 135.506372907 217.112540138 135.506372907 242 c 0
 135.506372907 304.402382761 160.928207113 359.270120699 183.261679761 409.526108895 c 0
 205.927621402 460.530236803 225.506372907 506.915408686 225.506372907 551 c 0
EndSplineSet
EndChar

StartChar: kuli_da
Encoding: 7 84999 7
Width: 847
Flags: HMW
AnchorPoint: "top" 650 787 basechar 0
AnchorPoint: "bottom" 443 -22 basechar 0
LayerCount: 2
Back
SplineSet
344 698 m 4
 355.267578125 700.928710938 366.91015625 708.348632812 380 708 c 4
 399.583007812 708 415 696.741210938 415 675 c 4
 415 637.104492188 389 608.776367188 389 569 c 4
 389 549.248046875 444 548 470 548 c 1028
229 426 m 29
 676 440 l 1053
150 589 m 4
 171.037109375 606.219726562 192 613 226 613 c 4
 253 613 255 572.8515625 255 551 c 4
 255 444.391601562 165 348.345703125 165 242 c 4
 165 135 486 135 561 135 c 4
 720 135 658 217 712 301 c 1028
EndSplineSet
Fore
SplineSet
423.228515625 583.516601562 m 1
 435.986328125 581.211914062 456.921875 580.493164062 470 580.493164062 c 0
 478.319335938 580.493164062 486.639648438 577.322265625 492.981445312 570.981445312 c 0
 499.322265625 564.639648438 502.493164062 556.319335938 502.493164062 548 c 0
 502.493164062 539.680664062 499.322265625 531.360351562 492.981445312 525.018554688 c 0
 486.639648438 518.677734375 478.319335938 515.506835938 470 515.506835938 c 0
 457.133789062 515.506835938 437.28515625 515.686523438 417.903320312 518.499023438 c 0
 409.22265625 519.758789062 400.53515625 521.483398438 391.715820312 524.727539062 c 0
 384.739257812 527.29296875 377.029296875 530.740234375 369.440429688 538.329101562 c 0
 362.578125 545.19140625 356.506835938 556.297851562 356.506835938 569 c 0
 356.506835938 596.513671875 365.444335938 618.315429688 371.935546875 635.079101562 c 0
 378.453125 651.913085938 382.506835938 663.83984375 382.506835938 675 c 0
 382.506835938 675.125976562 382.501953125 675.244140625 382.501953125 675.354492188 c 0
 381.944335938 675.440429688 381.143554688 675.506835938 380 675.506835938 c 0
 379.708984375 675.506835938 379.418945312 675.509765625 379.127929688 675.517578125 c 0
 372.2421875 675.517578125 355.370117188 665.506835938 344 665.506835938 c 0
 335.680664062 665.506835938 327.360351562 668.677734375 321.018554688 675.018554688 c 0
 314.677734375 681.360351562 311.506835938 689.680664062 311.506835938 698 c 0
 311.506835938 706.319335938 314.677734375 714.639648438 321.018554688 720.981445312 c 0
 328.115234375 728.077148438 333.942382812 728.459960938 343.866210938 732.350585938 c 0
 350.975585938 735.137695312 362.786132812 740.5078125 378.928710938 740.5078125 c 0
 396.970703125 740.5078125 414.958007812 735.5859375 429.1796875 721.364257812 c 0
 441.274414062 709.26953125 447.493164062 692.38671875 447.493164062 675 c 0
 447.493164062 635.407226562 429.829101562 612.899414062 423.228515625 583.516601562 c 1
383.736328125 674.966796875 m 1
 383.7265625 674.978515625 383.736328125 674.966796875 383.736328125 674.966796875 c 1
229 393.506835938 m 0
 220.680664062 393.506835938 212.360351562 396.677734375 206.018554688 403.018554688 c 0
 199.677734375 409.360351562 196.506835938 417.680664062 196.506835938 426 c 0
 196.506835938 434.319335938 199.677734375 442.639648438 206.018554688 448.981445312 c 0
 212.100585938 455.0625 220 458.227539062 227.974609375 458.477539062 c 2
 674.974609375 472.477539062 l 2
 675.31640625 472.48828125 675.658203125 472.493164062 676 472.493164062 c 0
 684.319335938 472.493164062 692.639648438 469.322265625 698.981445312 462.981445312 c 0
 705.322265625 456.639648438 708.493164062 448.319335938 708.493164062 440 c 0
 708.493164062 431.680664062 705.322265625 423.360351562 698.981445312 417.018554688 c 0
 692.899414062 410.9375 685 407.772460938 677.025390625 407.522460938 c 2
 230.025390625 393.522460938 l 2
 229.68359375 393.51171875 229.341796875 393.506835938 229 393.506835938 c 0
222.506835938 551 m 0
 222.506835938 560.575195312 221.943359375 572.615234375 219.553710938 580.40625 c 1
 206.580078125 579.986328125 197.646484375 578.26171875 190.404296875 575.598632812 c 0
 183.6640625 573.12109375 177.71484375 569.68359375 170.561523438 563.828125 c 0
 164.59765625 558.947265625 157.298828125 556.506835938 150 556.506835938 c 0
 141.680664062 556.506835938 133.360351562 559.677734375 127.018554688 566.018554688 c 0
 120.677734375 572.360351562 117.506835938 580.680664062 117.506835938 589 c 0
 117.506835938 598.512695312 122.08203125 608.149414062 129.438476562 614.171875 c 0
 140.985351562 623.623046875 153.705078125 631.368164062 167.909179688 636.590820312 c 0
 185.704101562 643.1328125 204.783203125 645.493164062 226 645.493164062 c 0
 241.026367188 645.493164062 255.161132812 639.112304688 264.64453125 629.62890625 c 0
 277.240234375 617.033203125 281.479492188 602.604492188 284.021484375 590.662109375 c 0
 287.27734375 575.3671875 287.493164062 561.064453125 287.493164062 551 c 0
 287.493164062 488.41015625 262.016601562 433.409179688 239.655273438 383.08984375 c 0
 217.016601562 332.146484375 197.493164062 285.877929688 197.493164062 242 c 0
 197.493164062 236.80859375 198.93359375 232.404296875 205.431640625 225.907226562 c 0
 213.396484375 217.942382812 229.572265625 208.506835938 251.615234375 200.75 c 0
 279.043945312 191.09765625 314.44921875 183.838867188 351.419921875 178.846679688 c 0
 434.810546875 167.5859375 525.483398438 167.493164062 561 167.493164062 c 0
 612.845703125 167.493164062 630.911132812 177.377929688 637.31640625 183.783203125 c 0
 643.681640625 190.1484375 647.637695312 202.521484375 652.490234375 227.908203125 c 0
 657.118164062 252.119140625 663.165039062 285.146484375 684.645507812 318.559570312 c 0
 690.20703125 327.2109375 701.038085938 333.493164062 712 333.493164062 c 0
 720.319335938 333.493164062 728.639648438 330.322265625 734.981445312 323.981445312 c 0
 741.322265625 317.639648438 744.493164062 309.319335938 744.493164062 301 c 0
 744.493164062 294.884765625 742.780273438 288.76953125 739.354492188 283.440429688 c 0
 725.390625 261.71875 720.981445312 240.040039062 716.31640625 215.6328125 c 0
 711.875976562 192.403320312 707.703125 162.245117188 683.278320312 137.821289062 c 0
 657.4453125 111.98828125 618.428710938 102.506835938 561 102.506835938 c 0
 560.452148438 102.506835938 559.891601562 102.506835938 559.318359375 102.506835938 c 0
 522.072265625 102.506835938 430.431640625 102.596679688 342.663085938 114.447265625 c 0
 302.961914062 119.80859375 263.922851562 127.50390625 229.969726562 139.452148438 c 0
 202.907226562 148.975585938 178.33984375 161.075195312 159.469726562 179.9453125 c 0
 143.749023438 195.665039062 132.506835938 217.112304688 132.506835938 242 c 0
 132.506835938 304.40234375 157.927734375 359.270507812 180.26171875 409.526367188 c 0
 202.927734375 460.530273438 222.506835938 506.915039062 222.506835938 551 c 0
EndSplineSet
EndChar

StartChar: kuli_na
Encoding: 8 85000 8
Width: 850
Flags: MW
AnchorPoint: "top" 480 752 basechar 0
AnchorPoint: "bottom" 446 -22 basechar 0
LayerCount: 2
Back
SplineSet
408 566 m 29
 408 66 l 1053
115 443 m 4
 175 499 277.313476562 569 409 569 c 4
 573 569 644.829101562 523.170898438 721 447 c 1028
EndSplineSet
Fore
SplineSet
375.506372907 566 m 6
 375.506372907 574.319599626 378.677258475 582.639199253 385.019029611 588.980970389 c 4
 391.360800747 595.322741525 399.680400374 598.493627093 408 598.493627093 c 4
 416.319599626 598.493627093 424.639199253 595.322741525 430.980970389 588.980970389 c 4
 437.322741525 582.639199253 440.493627093 574.319599626 440.493627093 566 c 6
 440.493627093 66 l 6
 440.493627093 57.6804003737 437.322741525 49.3608007474 430.980970389 43.0190296114 c 4
 424.639199253 36.6772584754 416.319599626 33.5063729074 408 33.5063729074 c 4
 399.680400374 33.5063729074 391.360800747 36.6772584754 385.019029611 43.0190296114 c 4
 378.677258475 49.3608007474 375.506372907 57.6804003737 375.506372907 66 c 6
 375.506372907 566 l 6
115 410.506372907 m 4
 106.680400374 410.506372907 98.3608007474 413.677258475 92.0190296114 420.019029611 c 4
 85.6772584754 426.360800747 82.5063729074 434.680400374 82.5063729074 443 c 4
 82.5063729074 451.718292067 86.1626293751 460.541858508 92.8375504925 466.771784884 c 4
 156.010546706 525.733248017 265.309465465 601.493627093 409 601.493627093 c 4
 484.530350704 601.493627093 543.387829473 592.094239419 592.897281876 573.649452587 c 4
 654.913563884 550.545236195 700.272898074 513.689042704 743.980970389 469.980970389 c 4
 750.322741525 463.639199253 753.493627093 455.319599626 753.493627093 447 c 4
 753.493627093 438.680400374 750.322741525 430.360800747 743.980970389 424.019029611 c 4
 737.639199253 417.677258475 729.319599626 414.506372907 721 414.506372907 c 4
 712.680400374 414.506372907 704.360800747 417.677258475 698.019029611 424.019029611 c 4
 657.092770329 464.945288894 620.497894449 493.993922755 570.142455778 512.753882461 c 4
 529.754531639 527.800436507 479.247427074 536.506372907 409 536.506372907 c 4
 289.31748766 536.506372907 193.989453294 472.266751983 137.162449508 419.228215116 c 4
 130.932562216 413.413653644 122.966281108 410.506372907 115 410.506372907 c 4
EndSplineSet
EndChar

StartChar: kuli_pa
Encoding: 9 85001 9
Width: 850
Flags: MW
AnchorPoint: "top" 480 752 basechar 0
AnchorPoint: "bottom" 446 -22 basechar 0
LayerCount: 2
Back
SplineSet
397 370.700195312 m 29
 605 395.900390625 l 1053
120 285.200195312 m 4
 120 211.806640625 156.944335938 116 249 116 c 4
 286 116 305.602539062 164.63671875 320 200.599609375 c 4
 398.0078125 395.45703125 483 630.799804688 648 630.799804688 c 4
 685 630.799804688 716 623.599609375 731 611.900390625 c 1028
EndSplineSet
Fore
SplineSet
397 338.20656822 m 4
 388.680400374 338.20656822 380.360800747 341.377453788 374.019029611 347.719224924 c 4
 367.677258475 354.06099606 364.506372907 362.380595686 364.506372907 370.700195312 c 4
 364.506372907 379.019794939 367.677258475 387.339394565 374.019029611 393.681165701 c 4
 379.358823135 399.020959225 386.10083753 402.112690317 393.064397908 402.956358979 c 6
 601.064397908 428.156554291 l 6
 602.371064836 428.314863242 603.685532418 428.394017718 605 428.394017718 c 4
 613.319599626 428.394017718 621.639199253 425.22313215 627.980970389 418.881361014 c 4
 634.322741525 412.539589878 637.493627093 404.219990251 637.493627093 395.900390625 c 4
 637.493627093 387.580790999 634.322741525 379.261191372 627.980970389 372.919420236 c 4
 622.641176865 367.579626713 615.89916247 364.48789562 608.935602092 363.644226959 c 6
 400.935602092 338.444031646 l 6
 399.628935164 338.285722695 398.314467582 338.20656822 397 338.20656822 c 4
87.5063729074 285.200195312 m 4
 87.5063729074 293.519794939 90.6772584754 301.839394565 97.0190296114 308.181165701 c 4
 103.360800747 314.522936837 111.680400374 317.693822405 120 317.693822405 c 4
 128.319599626 317.693822405 136.639199253 314.522936837 142.980970389 308.181165701 c 4
 149.322741525 301.839394565 152.493627093 293.519794939 152.493627093 285.200195312 c 4
 152.493627093 263.139223016 156.561488439 238.032683794 164.950984957 215.958009479 c 4
 171.672406087 198.272421071 181.078406801 182.768603983 192.278446567 171.568564218 c 4
 206.661486922 157.185523863 224.144504884 148.493627093 249 148.493627093 c 4
 251.155400864 148.493627093 253.642976187 148.87014231 258.783189444 154.010355567 c 4
 271.796431198 167.023597321 281.821082906 192.691138028 289.833807463 212.705829375 c 4
 321.923554129 292.863509788 353.594545432 376.03703794 393.235055296 452.049798565 c 4
 420.920394379 505.137891019 451.948049351 553.669726633 489.78757038 591.509247662 c 4
 532.409236414 634.130913697 585.022775486 663.29343178 648 663.29343178 c 4
 670.917597429 663.29343178 692.119289253 660.904922372 710.702729863 656.017079373 c 4
 725.529013499 652.117449148 739.092216535 646.80888716 750.963000901 637.550293624 c 4
 758.552186892 631.631123822 763.493627093 621.694400822 763.493627093 611.900390625 c 4
 763.493627093 603.580790999 760.322741525 595.261191372 753.980970389 588.919420236 c 4
 747.639199253 582.5776491 739.319599626 579.406763532 731 579.406763532 c 4
 723.943363269 579.406763532 716.886726537 581.688004897 711.036999099 586.250487626 c 4
 709.574450131 587.391199646 703.48333218 590.704551238 694.090137078 593.175162783 c 4
 682.399229266 596.250121995 666.193513683 598.306177595 648 598.306177595 c 4
 606.267703866 598.306177595 570.282142015 580.079937744 535.749511157 545.547306885 c 4
 505.206461023 515.004256752 476.841944051 471.771375252 450.87714492 421.982508566 c 4
 413.785645894 350.857610164 381.760978936 267.414697704 350.166192537 188.493389375 c 4
 339.124424602 160.912561458 325.891787398 129.195071967 304.745130221 108.04841479 c 4
 291.558082985 94.8613675531 272.543322121 83.5063729074 249 83.5063729074 c 4
 206.604181889 83.5063729074 171.542456464 100.380672766 146.31650579 125.606623441 c 4
 110.480836931 161.442292299 87.5063729074 221.160370908 87.5063729074 285.200195312 c 4
EndSplineSet
EndChar

StartChar: kuli_ba
Encoding: 10 85002 10
Width: 667
Flags: HMW
AnchorPoint: "top" 479 752 basechar 0
AnchorPoint: "bottom" 445 -22 basechar 0
LayerCount: 2
Back
SplineSet
115.915039062 371 m 4
 127.74609375 491 234.309570312 588 354.309570312 588 c 4
 474.309570312 588 561.74609375 491 549.915039062 371 c 4
 538.084960938 251 431.521484375 154 311.521484375 154 c 4
 191.521484375 154 104.084960938 251 115.915039062 371 c 4
EndSplineSet
Fore
SplineSet
354.309570312 620.493164062 m 0
 419.052734375 620.493164062 476.586914062 595.780273438 517.827148438 554.540039062 c 0
 559.143554688 513.223632812 583.4765625 455.924804688 583.4765625 392.546875 c 0
 583.4765625 384.387695312 583.073242188 376.127929688 582.250976562 367.7890625 c 0
 569.123046875 234.625 452.173828125 121.506835938 311.521484375 121.506835938 c 0
 246.778320312 121.506835938 189.243164062 146.219726562 148.00390625 187.459960938 c 0
 106.686523438 228.776367188 82.3544921875 286.076171875 82.3544921875 349.455078125 c 0
 82.3544921875 357.61328125 82.7568359375 365.872070312 83.5791015625 374.2109375 c 0
 96.7080078125 507.375 213.657226562 620.493164062 354.309570312 620.493164062 c 0
147.33203125 349.290039062 m 0
 147.33203125 302.7890625 165.0390625 262.34765625 193.965820312 233.421875 c 0
 222.880859375 204.505859375 263.633789062 186.493164062 311.521484375 186.493164062 c 0
 366.047851562 186.493164062 418.44921875 210.236328125 456.877929688 248.6640625 c 0
 490.380859375 282.166992188 512.870117188 326.447265625 517.579101562 374.2109375 c 0
 518.196289062 380.47265625 518.498046875 386.643554688 518.498046875 392.7109375 c 0
 518.498046875 439.211914062 500.791015625 479.65234375 471.865234375 508.578125 c 0
 442.950195312 537.494140625 402.197265625 555.506835938 354.309570312 555.506835938 c 0
 299.783203125 555.506835938 247.380859375 531.763671875 208.953125 493.3359375 c 0
 175.450195312 459.83203125 152.959960938 415.552734375 148.250976562 367.7890625 c 0
 147.633789062 361.52734375 147.33203125 355.357421875 147.33203125 349.290039062 c 0
EndSplineSet
EndChar

StartChar: kuli_ma
Encoding: 11 85003 11
Width: 850
Flags: MW
AnchorPoint: "top" 480 752 basechar 0
AnchorPoint: "bottom" 446 -22 basechar 0
LayerCount: 2
Back
SplineSet
188 227 m 4
 266.314453125 259.352539062 381.768554688 294.564453125 457 330 c 1028
146 388 m 4
 148.328419512 318.147414648 161 247 174 202 c 4
 192.040077433 139.553578115 230 108 312 108 c 4
 378 108 422.018324355 214.092967029 452 280 c 4
 481.424124573 345.690583502 511 433 534 478 c 4
 566.469550823 541.527382044 595.560901422 600.049568694 656 616 c 4
 662.427445519 617.696261702 714 630 714 630 c 1029
EndSplineSet
Fore
SplineSet
188 194.506372907 m 4
 179.680400374 194.506372907 171.360800747 197.677258475 165.019029611 204.019029611 c 4
 158.677258475 210.360800747 155.506372907 218.680400374 155.506372907 227 c 4
 155.506372907 240.281205638 164.418787638 252.42785118 175.565709867 257.032764098 c 4
 254.786941173 289.759902935 370.785924222 325.322829021 443.135983145 359.401184072 c 4
 447.512924352 361.462812752 452.256462176 362.493627093 457 362.493627093 c 4
 465.319599626 362.493627093 473.639199253 359.322741525 479.980970389 352.980970389 c 4
 486.322741525 346.639199253 489.493627093 338.319599626 489.493627093 330 c 4
 489.493627093 317.333322999 481.319398451 305.523514146 470.864016855 300.598815928 c 4
 394.248548356 264.511365872 281.307623627 230.376875842 200.434290133 196.967235902 c 4
 196.463017291 195.326660572 192.231508645 194.506372907 188 194.506372907 c 4
113.506372907 388 m 4
 113.506372907 396.319599626 116.677258475 404.639199253 123.019029611 410.980970389 c 4
 129.360800747 417.322741525 137.680400374 420.493627093 146 420.493627093 c 4
 154.319599626 420.493627093 162.639199253 417.322741525 168.980970389 410.980970389 c 4
 175.045547492 404.916393286 178.210375089 397.043107837 178.475453179 389.090765112 c 4
 180.696492359 322.459589715 193.120251469 252.919471279 205.213355424 211.05872682 c 4
 211.408634376 189.613530447 219.589230858 175.060630728 229.539372158 165.110489429 c 4
 244.138795636 150.511065951 267.358438474 140.493627093 312 140.493627093 c 4
 321.174166844 140.493627093 332.254035084 145.146604058 345.710600708 158.603169682 c 4
 377.734219017 190.626787991 402.172758118 248.968104384 422.34196982 293.304949208 c 4
 435.245189148 322.111923723 448.523476126 356.062091707 461.323120055 388.836104958 c 4
 477.335862264 429.837388138 491.920938082 467.086157375 506.536323465 495.692489486 c 4
 538.125894603 557.521975301 572.297926982 627.523334334 647.667620884 647.414086404 c 4
 661.481793749 651.059773063 707.210919046 662.493627118 714.000000107 662.493627118 c 4
 722.319599733 662.493627118 730.63919936 659.32274155 736.980970496 652.980970414 c 4
 743.322741632 646.639199278 746.4936272 638.319599652 746.4936272 630.000000026 c 4
 746.4936272 621.680400399 743.322741632 613.360800773 736.980970496 607.019029637 c 4
 732.579833374 602.617892515 727.226125272 599.743931889 721.580922772 598.39714781 c 6
 721.580922772 598.39714781 669.670056885 585.994575614 664.332379116 584.585913596 c 4
 648.374683381 580.374531633 635.650478114 572.375624567 623.429216488 560.15436294 c 4
 602.316234031 539.041380483 583.195366686 502.826777227 562.942304812 463.201221388 c 4
 551.709156625 441.22332276 537.182509088 404.374828634 521.856712033 365.132496694 c 4
 507.395096505 328.102936998 492.180535613 290.030849264 476.497007633 255.290663685 c 4
 455.105702457 207.907325412 428.119726839 149.088414259 391.672541485 112.641228905 c 4
 371.461827398 92.4305148185 344.919073871 75.5063729074 312 75.5063729074 c 4
 257.959562082 75.5063729074 214.388067177 88.3379128551 183.577431381 119.148548652 c 4
 163.470477226 139.255502807 150.961387427 164.64408639 142.786644576 192.94127318 c 4
 128.879748531 241.080528721 115.960346664 313.835239581 113.524546821 386.909234888 c 4
 113.512430878 387.272713151 113.506372907 387.636356576 113.506372907 388 c 4
EndSplineSet
EndChar

StartChar: kuli_la
Encoding: 14 85006 14
Width: 810
Flags: MW
AnchorPoint: "top" 480 752 basechar 0
AnchorPoint: "bottom" 446 -22 basechar 0
LayerCount: 2
Back
SplineSet
154 465 m 1
 451 515 l 2
 491 522 657 545.372070312 657 597 c 0
 657 626.615234375 618.926757812 639 584.200195312 639 c 0
 437.163085938 639 437.70703125 167.865234375 425.599609375 105 c 1024
EndSplineSet
Fore
SplineSet
535.329923198 564.129569718 m 1
 545.906814952 583.484251981 561.532856216 606.506372907 584.200195312 606.506372907 c 0
 598.905293659 606.506372907 614.526729631 603.513903259 622.912784235 597.776139982 c 1
 619.882339014 595.068380784 613.659869601 590.836716005 605.189099932 586.756498254 c 0
 587.10639401 578.046383285 559.106161106 569.749798082 535.329923198 564.129569718 c 1
121.506372907 465 m 0
 121.506372907 456.680400374 124.677258475 448.360800747 131.019029611 442.019029611 c 0
 137.360800747 435.677258475 145.680400374 432.506372907 154 432.506372907 c 0
 155.816591579 432.506372907 157.633183158 432.657551504 159.429184884 432.959908697 c 2
 437.436837817 479.763189412 l 1
 435.106226716 469.842968266 432.930535879 459.757542124 430.887708193 449.555321643 c 0
 411.879187615 354.623615305 404.567339862 248.957584421 399.666181942 179.169707879 c 0
 397.281477016 145.213753875 395.093471277 118.441442193 393.695472494 111.182628377 c 0
 393.302479019 109.142092653 393.105982282 107.071046327 393.105982282 105 c 0
 393.105982282 96.6804003737 396.27686785 88.3608007474 402.618638986 82.0190296114 c 0
 408.960410122 75.6772584754 417.280009749 72.5063729074 425.599609375 72.5063729074 c 0
 433.919209001 72.5063729074 442.238808628 75.6772584754 448.580579764 82.0190296114 c 0
 453.343656923 86.7821067712 456.318045754 92.660871855 457.503746256 98.8173716232 c 0
 460.613339068 114.96327642 462.056139675 139.890230316 464.492591894 174.583017095 c 0
 469.375130739 244.105775511 476.749036793 347.551058774 494.603569453 436.719557937 c 0
 498.460430893 455.981364039 502.815328113 474.547078952 507.662359631 491.85314331 c 1
 548.842590006 499.639134204 598.516717656 511.381364157 633.423094491 528.195139523 c 0
 646.684694576 534.58301432 659.047065106 541.939039257 669.679028843 552.571002993 c 0
 679.998076923 562.890051073 689.493627093 577.977886931 689.493627093 597 c 0
 689.493627093 615.257090662 681.512858997 631.426431131 670.400654583 642.538635545 c 0
 650.504271441 662.435018688 619.41903828 671.493627093 584.200195312 671.493627093 c 0
 554.491703885 671.493627093 528.991185443 658.034358414 509.713001827 638.756174798 c 0
 486.423631905 615.466804875 470.377676674 583.717640863 457.716601665 549.084117664 c 1
 148.570815116 497.040091303 l 2
 142.141514323 495.957717432 135.976069684 492.938010461 131.019029611 487.980970389 c 0
 124.677258475 481.639199253 121.506372907 473.319599626 121.506372907 465 c 0
EndSplineSet
EndChar

StartChar: u14C10
Encoding: 16 85008 16
Width: 850
Flags: MW
AnchorPoint: "top" 553 833 basechar 0
AnchorPoint: "bottom" 446 -22 basechar 0
LayerCount: 2
Back
SplineSet
423 648.799804688 m 4
 423 648.799804688 486.291992188 670.400390625 553 670.400390625 c 4
 571.9921875 670.400390625 632 664.336914062 632 636.200195312 c 4
 632 541.700195312 480 485.900390625 480 485.900390625 c 4
 480 485.900390625 552.625976562 468.8671875 594 443.599609375 c 4
 678 392.299804688 698 358.15234375 698 285.200195312 c 4
 698 156.107421875 565.33203125 107 447 107 c 4
 293.890625 107 200 210.5 149 283.400390625 c 1028
EndSplineSet
Fore
SplineSet
423 616.306177595 m 4
 414.680400374 616.306177595 406.360800747 619.477063163 400.019029611 625.818834299 c 4
 393.677258475 632.160605435 390.506372907 640.480205061 390.506372907 648.799804688 c 4
 390.506372907 657.119404314 393.677258475 665.43900394 400.019029611 671.780775076 c 4
 403.645217628 675.406963093 407.918053937 677.996434453 412.46778879 679.549189158 c 4
 414.09519585 680.10459822 479.590548873 702.894017718 553 702.894017718 c 4
 564.203893985 702.894017718 582.116008909 701.637574651 601.420065472 696.985438485 c 4
 619.601068825 692.603949912 636.095621315 686.035087729 648.595553687 673.535155357 c 4
 657.140664568 664.990044476 664.493627093 651.77411444 664.493627093 636.200195312 c 4
 664.493627093 592.905557553 641.774778269 558.449337337 616.371851346 533.046410415 c 4
 600.391931132 517.066490201 582.697045199 503.884187195 565.777909841 493.108581043 c 5
 581.199813378 487.082035968 596.874821587 479.93233983 610.929121452 471.349221962 c 4
 640.184510192 453.482606148 663.159861549 437.043434084 681.46772323 418.735572402 c 4
 697.639999316 402.563296316 709.849137973 384.837641516 717.745417815 365.125846233 c 4
 727.625695478 340.461318817 730.493627093 314.229970704 730.493627093 285.200195312 c 4
 730.493627093 230.706344594 709.717764823 185.911495067 676.998457287 153.192187531 c 4
 626.246686743 102.440416987 540.39737391 74.5063729074 447 74.5063729074 c 4
 330.188287084 74.5063729074 244.437351397 129.658232185 185.945507281 188.150076301 c 4
 159.783650022 214.311933561 138.840089281 241.219371346 122.349603432 264.79119213 c 4
 118.454116416 270.359476938 116.506372907 276.879933781 116.506372907 283.400390625 c 4
 116.506372907 291.719990251 119.677258475 300.039589878 126.019029611 306.381361014 c 4
 132.360800747 312.72313215 140.680400374 315.894017718 149 315.894017718 c 4
 159.458873012 315.894017718 169.920735641 310.199677742 175.650396568 302.00958912 c 4
 190.627160984 280.601511154 209.314974941 256.704490196 231.907448058 234.112017078 c 4
 282.696743984 183.322721152 352.062198623 139.493627093 447 139.493627093 c 4
 486.084974436 139.493627093 526.783727534 145.414283577 561.722081724 157.836411221 c 4
 589.708471759 167.786808639 613.698642433 181.816254231 631.03651651 199.154128308 c 4
 652.510401398 220.628013196 665.506372907 247.583106787 665.506372907 285.200195312 c 4
 665.506372907 310.097552931 662.909954742 327.191218548 657.418286197 340.900287666 c 4
 653.017009072 351.88736961 646.587729047 361.691685031 635.505782453 372.773631625 c 4
 622.962466862 385.316947216 604.046574351 399.375616716 577.070878548 415.849996788 c 4
 542.280359581 437.096955216 472.540149199 454.268898697 472.540149199 454.268898697 c 6
 466.850442175 455.603323927 461.451618741 458.486831107 457.019029611 462.919420236 c 4
 450.677258475 469.261191372 447.506372907 477.580790999 447.506372907 485.900390625 c 4
 447.506372907 499.673092584 457.001961695 512.082593708 468.767942464 516.401931773 c 5
 468.767942464 516.401931773 531.296910213 539.895350835 570.409910569 579.008351192 c 4
 587.003318213 595.601758836 596.943758459 612.634713245 599.07365456 629.41831485 c 4
 596.295158668 630.696260072 591.929187515 632.41289707 586.113373508 633.814465625 c 4
 573.861715142 636.767025508 558.68063515 637.906763532 553 637.906763532 c 4
 491.771807851 637.906763532 433.53221121 618.050420217 433.53221121 618.050420217 c 6
 430.125001461 616.887591802 426.562500731 616.306177595 423 616.306177595 c 4
EndSplineSet
EndChar

StartChar: kuli_garlit_i
Encoding: 18 85010 18
Width: 0
Flags: MW
AnchorPoint: "top" 245 716 mark 0
LayerCount: 2
Back
SplineSet
162 690 m 5
 329 742 l 1053
EndSplineSet
Fore
SplineSet
162 657.506372907 m 0
 153.680400374 657.506372907 145.360800747 660.677258475 139.019029611 667.019029611 c 0
 132.677258475 673.360800747 129.506372907 681.680400374 129.506372907 690 c 0
 129.506372907 698.319599626 132.677258475 706.639199253 139.019029611 712.980970389 c 0
 142.865604257 716.827545034 147.439817667 719.507557832 152.300323605 721.021008783 c 2
 319.300323605 773.021008783 l 2
 322.453237165 774.002754323 325.726618583 774.493627093 329 774.493627093 c 0
 337.319599626 774.493627093 345.639199253 771.322741525 351.980970389 764.980970389 c 0
 358.322741525 758.639199253 361.493627093 750.319599626 361.493627093 742 c 0
 361.493627093 733.680400374 358.322741525 725.360800747 351.980970389 719.019029611 c 0
 348.134395743 715.172454966 343.560182333 712.492442168 338.699676395 710.978991217 c 2
 171.699676395 658.978991217 l 2
 168.546762835 657.997245677 165.273381417 657.506372907 162 657.506372907 c 0
EndSplineSet
EndChar

StartChar: kuli_garlit_u
Encoding: 19 85011 19
Width: 0
Flags: MW
AnchorPoint: "bottom" 245 -84 mark 0
LayerCount: 2
Back
SplineSet
162 -110 m 1
 329 -58 l 1049
EndSplineSet
Fore
SplineSet
162 -142.493164062 m 0
 153.680664062 -142.493164062 145.360351562 -139.322265625 139.018554688 -132.981445312 c 0
 132.677734375 -126.639648438 129.506835938 -118.319335938 129.506835938 -110 c 0
 129.506835938 -101.680664062 132.677734375 -93.3603515625 139.018554688 -87.0185546875 c 0
 142.865234375 -83.1728515625 147.439453125 -80.4921875 152.30078125 -78.978515625 c 2
 319.30078125 -26.978515625 l 2
 322.453125 -25.9970703125 325.7265625 -25.5068359375 329 -25.5068359375 c 0
 337.319335938 -25.5068359375 345.639648438 -28.677734375 351.981445312 -35.0185546875 c 0
 358.322265625 -41.3603515625 361.493164062 -49.6806640625 361.493164062 -58 c 0
 361.493164062 -66.3193359375 358.322265625 -74.6396484375 351.981445312 -80.9814453125 c 0
 348.134765625 -84.8271484375 343.560546875 -87.5078125 338.69921875 -89.021484375 c 2
 171.69921875 -141.021484375 l 2
 168.546875 -142.002929688 165.2734375 -142.493164062 162 -142.493164062 c 0
EndSplineSet
EndChar

StartChar: kuli_aa
Encoding: 32 -1 32
Width: 850
Flags: HMW
AnchorPoint: "top" 480 752 basechar 0
AnchorPoint: "bottom" 446 -22 basechar 0
LayerCount: 2
Back
SplineSet
224 34 m 4
 267.893554688 51.521484375 310.37890625 96.1767578125 352.950195312 140 c 1028
317 614 m 4
 328.2578125 444.6171875 327.28125 215.84375 510.799804688 206 c 4
 646.7421875 198.708007812 756.450195312 312 756.450195312 312 c 1028
17.25 114 m 4
 61.1435546875 131.521484375 133.62890625 204.176757812 176.200195312 248 c 1028
98 614 m 4
 109.2578125 444.6171875 108.28125 215.84375 291.799804688 206 c 4
 427.7421875 198.708007812 537.450195312 312 537.450195312 312 c 1028
EndSplineSet
Fore
SplineSet
264 1.50637290743 m 0
 255.680400374 1.50637290743 247.360800747 4.67725847544 241.019029611 11.0190296114 c 0
 234.677258475 17.3608007474 231.506372907 25.6804003737 231.506372907 34 c 0
 231.506372907 47.4297880277 240.592811957 59.6550750445 251.923566817 64.178100023 c 0
 277.290085073 74.3039386897 307.654693935 100.013660378 339.3569691 131.715935543 c 0
 349.392253291 141.751219734 359.617039421 152.628784885 369.969224924 162.980970389 c 0
 376.31099606 169.322741525 384.630595686 172.493627093 392.950195312 172.493627093 c 0
 401.269794939 172.493627093 409.589394565 169.322741525 415.931165701 162.980970389 c 0
 422.272936837 156.639199253 425.443822405 148.319599626 425.443822405 140 c 0
 425.443822405 131.828899896 422.385123145 123.657799792 416.267724626 117.360498424 c 0
 406.028920879 106.82058793 395.810137006 96.2452218942 385.318909877 85.7539947661 c 0
 352.215083206 52.6501680947 317.458933145 20.3410183678 276.076433183 3.82189997697 c 0
 272.209305951 2.27821526395 268.104652975 1.50637290743 264 1.50637290743 c 0
324.506372907 614 m 0
 324.506372907 622.319599626 327.677258475 630.639199253 334.019029611 636.980970389 c 0
 340.360800747 643.322741525 348.680400374 646.493627093 357 646.493627093 c 0
 365.319599626 646.493627093 373.639199253 643.322741525 379.980970389 636.980970389 c 0
 385.770785725 631.191155052 388.917651568 623.752809456 389.421567916 616.170984094 c 0
 397.79410407 490.199466851 400.290877774 340.427050975 466.759926662 273.958002087 c 0
 488.849157519 251.86877123 518.379699916 238.159949079 563.306754779 238.159949079 c 0
 608.74587657 238.159949079 651.904640666 253.336843791 687.645262977 272.472183901 c 0
 736.606137525 298.68557712 768.602613076 330.114358541 773.469224924 334.980970389 c 0
 779.81099606 341.322741525 788.130595686 344.493627093 796.450195312 344.493627093 c 0
 804.769794939 344.493627093 813.089394565 341.322741525 819.431165701 334.980970389 c 0
 825.772936837 328.639199253 828.943822405 320.319599626 828.943822405 312 c 0
 828.943822405 303.100716059 825.108986913 294.688710361 818.69264763 288.272371077 c 0
 811.833112808 281.412836255 774.830337293 245.406339841 718.331640551 215.157236496 c 0
 676.609157162 192.819239611 623.378361585 173.16501158 563.567653257 173.16501158 c 0
 501.498474847 173.16501158 455.223278684 193.570768511 420.797985885 227.996061309 c 0
 383.625419488 265.168627706 363.45326291 315.187748877 350.839200424 368.080134259 c 0
 331.793289338 447.942087548 330.053821928 529.447387038 324.578432084 611.829015906 c 0
 324.530392633 612.551807953 324.506372907 613.275903976 324.506372907 614 c 0
57.25 81.5063729074 m 0
 48.9304003737 81.5063729074 40.6108007474 84.6772584754 34.2690296114 91.0190296114 c 0
 27.9272584754 97.3608007474 24.7563729074 105.680400374 24.7563729074 114 c 0
 24.7563729074 127.429788028 33.8428119565 139.655075045 45.1735668171 144.178100023 c 0
 55.2388809295 148.195984772 73.5686726754 160.174550905 93.0231190906 176.055966623 c 0
 126.847871056 203.668417579 162.333667959 239.192106649 192.882665999 270.639501576 c 0
 199.178314316 277.120294782 207.714381463 280.493627093 216.200195312 280.493627093 c 0
 224.519794939 280.493627093 232.839394565 277.322741525 239.181165701 270.980970389 c 0
 245.522936837 264.639199253 248.693822405 256.319599626 248.693822405 248 c 0
 248.693822405 239.828899896 245.635123145 231.657799792 239.517724626 225.360498424 c 0
 206.958796969 191.844065084 171.673587806 156.347696219 134.079531599 125.658216683 c 0
 112.196194361 107.79400361 91.1263842606 92.5240318709 69.3264331829 83.821899977 c 0
 65.4593059509 82.2782152639 61.3546529755 81.5063729074 57.25 81.5063729074 c 0
105.506372907 614 m 0
 105.506372907 622.319599626 108.677258475 630.639199253 115.019029611 636.980970389 c 0
 121.360800747 643.322741525 129.680400374 646.493627093 138 646.493627093 c 0
 146.319599626 646.493627093 154.639199253 643.322741525 160.980970389 636.980970389 c 0
 166.770785725 631.191155052 169.917651568 623.752809456 170.421567916 616.170984094 c 0
 178.79410407 490.199466851 181.290877774 340.427050975 247.759926662 273.958002087 c 0
 269.849157519 251.86877123 299.379699916 238.159949079 344.306754779 238.159949079 c 0
 389.74587657 238.159949079 432.904640666 253.336843791 468.645262977 272.472183901 c 0
 517.606137525 298.68557712 549.602613076 330.114358541 554.469224924 334.980970389 c 0
 560.81099606 341.322741525 569.130595686 344.493627093 577.450195312 344.493627093 c 0
 585.769794939 344.493627093 594.089394565 341.322741525 600.431165701 334.980970389 c 0
 606.772936837 328.639199253 609.943822405 320.319599626 609.943822405 312 c 0
 609.943822405 303.100716059 606.108986913 294.688710361 599.69264763 288.272371077 c 0
 592.833112808 281.412836255 555.830337293 245.406339841 499.331640551 215.157236496 c 0
 457.609157162 192.819239611 404.378361585 173.16501158 344.567653257 173.16501158 c 0
 282.498474847 173.16501158 236.223278684 193.570768511 201.797985885 227.996061309 c 0
 164.625419488 265.168627706 144.45326291 315.187748877 131.839200424 368.080134259 c 0
 112.793289338 447.942087548 111.053821928 529.447387038 105.578432084 611.829015906 c 0
 105.530392633 612.551807953 105.506372907 613.275903976 105.506372907 614 c 0
EndSplineSet
EndChar

StartChar: kuli_ia
Encoding: 33 -1 33
Width: 1000
Flags: MW
AnchorPoint: "top" 480 752 basechar 0
AnchorPoint: "bottom" 446 -22 basechar 0
LayerCount: 2
Back
SplineSet
598.400390625 91.7001953125 m 4
 642.293945312 106.59375 693.829101562 132.450195312 736.400390625 169.700195312 c 1028
632.400390625 455.700195312 m 4
 643.658203125 311.725585938 640.291015625 158 824 158 c 4
 892 158 960 174 960 174 c 1028
118.349609375 415 m 4
 118.349609375 453 167.974609375 472 190.599609375 472 c 4
 360.223632812 472 286.223632812 166 418.400390625 166 c 4
 549.299804688 166 508.5 407.862304688 508.5 518 c 4
 508.5 617.71484375 556.359375 648.245117188 630.900390625 648 c 1028
37.599609375 216 m 5
 105.555664062 197.166015625 168.521484375 192.9765625 222.900390625 214 c 1029
EndSplineSet
Fore
SplineSet
598.400390625 59.2065682199 m 4
 590.080790999 59.2065682199 581.761191372 62.3774537879 575.419420236 68.7192249239 c 4
 569.0776491 75.0609960599 565.906763532 83.3805956862 565.906763532 91.7001953125 c 4
 565.906763532 100.019794939 569.0776491 108.339394565 575.419420236 114.681165701 c 4
 579.060012618 118.321758082 583.352400878 120.917381116 587.922411453 122.468034804 c 4
 628.42133812 136.209755733 676.598013768 160.559415807 715.019340575 194.178186933 c 4
 721.126471397 199.521943914 728.763431011 202.193822405 736.400390625 202.193822405 c 4
 744.719990251 202.193822405 753.039589878 199.022936837 759.381361014 192.681165701 c 4
 765.72313215 186.339394565 768.894017718 178.019794939 768.894017718 169.700195312 c 4
 768.894017718 160.597497859 764.780961839 151.34680478 757.781440675 145.222203692 c 4
 711.060189357 104.340974818 656.166552505 76.9777442671 608.878369797 60.9323558214 c 4
 605.487598686 59.7818307538 601.943994656 59.2065682199 598.400390625 59.2065682199 c 4
824 190.493627093 m 4
 897.077482466 190.493627093 949.353904136 206.493627093 960 206.493627093 c 4
 968.319599626 206.493627093 976.639199253 203.322741525 982.980970389 196.980970389 c 4
 989.322741525 190.639199253 992.493627093 182.319599626 992.493627093 174 c 4
 992.493627093 165.680400374 989.322741525 157.360800747 982.980970389 151.019029611 c 4
 978.554312715 146.592371938 973.164004933 143.710653189 967.482690229 142.373873365 c 4
 966.24255849 142.082077684 896.855260453 125.506372907 824 125.506372907 c 4
 758.046478973 125.506372907 708.205419019 144.17011973 673.83100667 178.544532079 c 4
 646.004847802 206.370690947 630.519496156 241.531320496 620.939646133 278.220617354 c 4
 606.321480683 334.205858293 604.724322847 392.81109267 600.006363009 453.148429499 c 4
 599.939963358 453.997605468 599.906763532 454.84890039 599.906763532 455.700195312 c 4
 599.906763532 464.019794939 603.0776491 472.339394565 609.419420236 478.681165701 c 4
 615.761191372 485.022936837 624.080790999 488.193822405 632.400390625 488.193822405 c 4
 640.719990251 488.193822405 649.039589878 485.022936837 655.381361014 478.681165701 c 4
 661.0742166 472.988310115 664.211902342 465.701676512 664.794418241 458.251961126 c 4
 671.852350514 367.989039975 673.02852405 271.270896253 719.792947447 224.506472856 c 4
 739.651852564 204.647567739 769.913433641 190.493627093 824 190.493627093 c 4
630.900390625 615.506372907 m 4
 630.606441745 615.506372907 630.312075738 615.507824429 630.01949764 615.507824429 c 4
 596.168751252 615.507824429 575.316621321 608.143048559 562.978312942 595.80474018 c 4
 551.227594759 584.054021996 540.993627093 561.844023322 540.993627093 518 c 4
 540.993627093 500.080650236 542.201028263 477.079958018 543.562408084 451.716608055 c 4
 545.183497685 421.51470389 547.058489702 388.000358977 547.058489702 354.267707254 c 4
 547.058489702 330.115178336 546.097267752 305.850733584 543.393393077 282.610104036 c 4
 538.281510312 238.671908683 527.423619899 195.153263184 496.988987869 164.718631154 c 4
 477.231228874 144.960872159 449.857962563 133.506372907 418.400390625 133.506372907 c 4
 389.842995919 133.506372907 365.213569972 144.721262578 347.51385847 162.420974079 c 4
 331.590097448 178.344735102 321.550363647 197.67724016 313.667166911 217.738722127 c 4
 294.293895261 267.040617396 286.018843028 330.066472328 266.847044748 377.316790229 c 4
 259.32203793 395.862727296 250.478650972 410.605072929 240.642107055 420.441616846 c 4
 228.744776763 432.338947138 214.733631548 439.506372907 190.599609375 439.506372907 c 4
 188.572219233 439.506372907 179.722170972 438.05468864 171.637394704 434.56028896 c 4
 165.14293137 431.75325388 159.171379572 427.833004509 155.698675421 424.360300359 c 4
 151.559668799 420.221293736 150.843236468 417.64885767 150.843236468 415 c 4
 150.843236468 406.680400374 147.6723509 398.360800747 141.330579764 392.019029611 c 4
 134.988808628 385.677258475 126.669209001 382.506372907 118.349609375 382.506372907 c 4
 110.030009749 382.506372907 101.710410122 385.677258475 95.3686389864 392.019029611 c 4
 89.0268678504 398.360800747 85.8559822824 406.680400374 85.8559822824 415 c 4
 85.8559822824 456.212184521 117.263848049 481.882434871 145.80451378 494.21827323 c 4
 161.197669906 500.871498757 176.092387957 504.493627093 190.599609375 504.493627093 c 4
 230.483728622 504.493627093 263.139844359 489.867761096 286.604047832 466.403557623 c 4
 324.447290351 428.560315104 339.41778992 370.004099337 353.631993267 312.572425821 c 4
 360.237814585 285.881983589 366.559160321 260.889369014 374.151511143 241.568043643 c 4
 380.253185969 226.040251607 387.110968816 214.747745288 393.475799248 208.382914856 c 4
 400.171469055 201.687245049 406.395830253 198.493627093 418.400390625 198.493627093 c 4
 434.494921939 198.493627093 443.344477068 202.998001907 451.027047092 210.680571931 c 4
 463.772302783 223.425827622 474.34715899 251.51736149 478.844490065 290.173297165 c 4
 481.134910824 309.860163888 481.97393556 331.48146788 481.97393556 353.727920582 c 4
 481.97393556 385.205752192 480.294115206 417.93520069 478.669264577 448.207175114 c 4
 477.305578772 473.613486984 476.006372907 497.312437622 476.006372907 518 c 4
 476.006372907 571.10407249 488.392580622 613.142889413 517.016372165 641.766680957 c 4
 547.024529534 671.774838325 588.051906743 680.495100756 630.006190957 680.495100756 c 4
 639.07418248 680.495100756 647.236763806 677.625567597 653.881361014 670.980970389 c 4
 660.22313215 664.639199253 663.394017718 656.319599626 663.394017718 648 c 4
 663.394017718 639.680400374 660.22313215 631.360800747 653.881361014 625.019029611 c 4
 647.539589878 618.677258475 639.219990251 615.506372907 630.900390625 615.506372907 c 4
5.10598228243 216 m 4
 5.10598228243 224.319599626 8.27686785044 232.639199253 14.6186389864 238.980970389 c 4
 20.9604101224 245.322741525 29.2800097487 248.493627093 37.599609375 248.493627093 c 4
 40.5349720854 248.493627093 43.4703347958 248.098897886 46.3188281372 247.309439473 c 4
 81.0997974213 237.669912354 113.202813123 232.505887559 142.44043764 232.505887559 c 4
 167.486031964 232.505887559 190.428998327 236.295255999 211.151515244 244.306791524 c 4
 214.922472502 245.764681903 218.911431564 246.493627093 222.900390625 246.493627093 c 4
 231.219990251 246.493627093 239.539589878 243.322741525 245.881361014 236.980970389 c 4
 252.22313215 230.639199253 255.394017718 222.319599626 255.394017718 214 c 4
 255.394017718 200.435911263 246.148623616 188.13897693 234.649266006 183.693208476 c 4
 205.171662907 172.296867704 174.25656132 167.422043589 142.493905118 167.422043589 c 4
 105.463131155 167.422043589 67.2803381873 174.048035502 28.8803906128 184.690560527 c 4
 23.6554952535 186.138637494 18.7228747425 188.914793855 14.6186389864 193.019029611 c 4
 8.27686785044 199.360800747 5.10598228243 207.680400374 5.10598228243 216 c 4
EndSplineSet
EndChar

StartChar: kuli_iu
Encoding: 34 -1 34
Width: 1000
Flags: MW
AnchorPoint: "top" 480 752 basechar 0
AnchorPoint: "bottom" 446 -22 basechar 0
LayerCount: 2
Back
SplineSet
688 374 m 4
 745.852539062 370.596679688 742 202 788 202 c 5
 838 202 865 380 890 380 c 1028
168.349609375 415 m 0
 168.349609375 453 217.974609375 472 240.599609375 472 c 0
 410.223632812 472 336.223632812 166 468.400390625 166 c 0
 599.299804688 166 558.5 407.862304688 558.5 518 c 0
 558.5 617.71484375 606.359375 648.245117188 680.900390625 648 c 1024
87.599609375 216 m 1
 155.555664062 197.166015625 218.521484375 192.9765625 272.900390625 214 c 1025
EndSplineSet
Fore
SplineSet
890 412.493627093 m 4
 898.319599626 412.493627093 906.639199253 409.322741525 912.980970389 402.980970389 c 4
 919.322741525 396.639199253 922.493627093 388.319599626 922.493627093 380 c 4
 922.493627093 368.352917245 915.482367464 357.123767793 906.124579257 351.774913317 c 5
 898.579424389 337.451883343 893.921795965 322.442804226 887.076206134 302.90133419 c 4
 879.631941317 281.650882224 871.360237126 257.836586202 861.394272339 236.184222176 c 4
 853.427008129 218.874296981 844.708244675 202.524370507 831.181306506 188.997432337 c 4
 821.46285684 179.278982672 807.028608344 169.506372907 788 169.506372907 c 4
 772.167432092 169.506372907 758.956108597 177.189395129 750.424684918 185.720818808 c 4
 739.339689599 196.805814127 733.63822377 209.20988127 728.676002871 221.698937687 c 4
 716.772390482 251.658282451 708.927891919 292.325464714 697.374198062 320.547807308 c 4
 692.697636439 331.97129887 688.328703833 338.999777151 685.083064424 341.6365841 c 4
 677.760738132 342.291744673 670.618832961 345.419226262 665.019029611 351.019029611 c 4
 658.677258475 357.360800747 655.506372907 365.680400374 655.506372907 374 c 4
 655.506372907 382.319599626 658.677258475 390.639199253 665.019029611 396.980970389 c 4
 671.360800747 403.322741525 679.680400374 406.493627093 688 406.493627093 c 4
 706.368721079 406.493627093 721.6407025 397.070885105 731.819124868 386.892462737 c 4
 744.259957174 374.451630431 751.502668518 359.919775214 757.518100369 345.225809746 c 4
 770.097294708 314.498465178 777.624281528 274.563804324 789.070498993 245.755643904 c 4
 789.599011736 244.425468243 790.131986171 243.17891684 790.656437537 242.02064449 c 5
 813.0318579 275.709997357 825.380217813 329.717346103 842.578271435 369.534201163 c 4
 847.199342395 380.232883507 851.208634828 389.987264465 861.164783019 399.943412656 c 4
 866.145352483 404.92398212 875.444739695 412.493627093 890 412.493627093 c 4
680.900390625 615.506372907 m 4
 680.606441745 615.506372907 680.312075738 615.507824429 680.01949764 615.507824429 c 4
 646.168751252 615.507824429 625.316621321 608.143048559 612.978312942 595.80474018 c 4
 601.227594759 584.054021996 590.993627093 561.844023322 590.993627093 518 c 4
 590.993627093 500.080650236 592.201028263 477.079958018 593.562408084 451.716608055 c 4
 595.183497685 421.51470389 597.058489702 388.000358977 597.058489702 354.267707254 c 4
 597.058489702 330.115178336 596.097267752 305.850733584 593.393393077 282.610104036 c 4
 588.281510312 238.671908683 577.423619899 195.153263184 546.988987869 164.718631154 c 4
 527.231228874 144.960872159 499.857962563 133.506372907 468.400390625 133.506372907 c 4
 439.842995919 133.506372907 415.213569972 144.721262578 397.51385847 162.420974079 c 4
 381.590097448 178.344735102 371.550363647 197.67724016 363.667166911 217.738722127 c 4
 344.293895261 267.040617396 336.018843028 330.066472328 316.847044748 377.316790229 c 4
 309.32203793 395.862727296 300.478650972 410.605072929 290.642107055 420.441616846 c 4
 278.744776763 432.338947138 264.733631548 439.506372907 240.599609375 439.506372907 c 4
 238.572219233 439.506372907 229.722170972 438.05468864 221.637394704 434.56028896 c 4
 215.14293137 431.75325388 209.171379572 427.833004509 205.698675421 424.360300359 c 4
 201.559668799 420.221293736 200.843236468 417.64885767 200.843236468 415 c 4
 200.843236468 406.680400374 197.6723509 398.360800747 191.330579764 392.019029611 c 4
 184.988808628 385.677258475 176.669209001 382.506372907 168.349609375 382.506372907 c 4
 160.030009749 382.506372907 151.710410122 385.677258475 145.368638986 392.019029611 c 4
 139.02686785 398.360800747 135.855982282 406.680400374 135.855982282 415 c 4
 135.855982282 456.212184521 167.263848049 481.882434871 195.80451378 494.21827323 c 4
 211.197669906 500.871498757 226.092387957 504.493627093 240.599609375 504.493627093 c 4
 280.483728622 504.493627093 313.139844359 489.867761096 336.604047832 466.403557623 c 4
 374.447290351 428.560315104 389.41778992 370.004099337 403.631993267 312.572425821 c 4
 410.237814585 285.881983589 416.559160321 260.889369014 424.151511143 241.568043643 c 4
 430.253185969 226.040251607 437.110968816 214.747745288 443.475799248 208.382914856 c 4
 450.171469055 201.687245049 456.395830253 198.493627093 468.400390625 198.493627093 c 4
 484.494921939 198.493627093 493.344477068 202.998001907 501.027047092 210.680571931 c 4
 513.772302783 223.425827622 524.34715899 251.51736149 528.844490065 290.173297165 c 4
 531.134910824 309.860163888 531.97393556 331.48146788 531.97393556 353.727920582 c 4
 531.97393556 385.205752192 530.294115206 417.93520069 528.669264577 448.207175114 c 4
 527.305578772 473.613486984 526.006372907 497.312437622 526.006372907 518 c 4
 526.006372907 571.10407249 538.392580622 613.142889413 567.016372165 641.766680957 c 4
 597.024529534 671.774838325 638.051906743 680.495100756 680.006190957 680.495100756 c 4
 689.07418248 680.495100756 697.236763806 677.625567597 703.881361014 670.980970389 c 4
 710.22313215 664.639199253 713.394017718 656.319599626 713.394017718 648 c 4
 713.394017718 639.680400374 710.22313215 631.360800747 703.881361014 625.019029611 c 4
 697.539589878 618.677258475 689.219990251 615.506372907 680.900390625 615.506372907 c 4
55.1059822824 216 m 4
 55.1059822824 224.319599626 58.2768678504 232.639199253 64.6186389864 238.980970389 c 4
 70.9604101224 245.322741525 79.2800097487 248.493627093 87.599609375 248.493627093 c 4
 90.5349720854 248.493627093 93.4703347958 248.098897886 96.3188281372 247.309439473 c 4
 131.099797421 237.669912354 163.202813123 232.505887559 192.44043764 232.505887559 c 4
 217.486031964 232.505887559 240.428998327 236.295255999 261.151515244 244.306791524 c 4
 264.922472502 245.764681903 268.911431564 246.493627093 272.900390625 246.493627093 c 4
 281.219990251 246.493627093 289.539589878 243.322741525 295.881361014 236.980970389 c 4
 302.22313215 230.639199253 305.394017718 222.319599626 305.394017718 214 c 4
 305.394017718 200.435911263 296.148623616 188.13897693 284.649266006 183.693208476 c 4
 255.171662907 172.296867704 224.25656132 167.422043589 192.493905118 167.422043589 c 4
 155.463131155 167.422043589 117.280338187 174.048035502 78.8803906128 184.690560527 c 4
 73.6554952535 186.138637494 68.7228747425 188.914793855 64.6186389864 193.019029611 c 4
 58.2768678504 199.360800747 55.1059822824 207.680400374 55.1059822824 216 c 4
EndSplineSet
EndChar

StartChar: kuli_i_i
Encoding: 35 -1 35
Width: 1000
Flags: HMW
AnchorPoint: "bottom" 446 -22 basechar 0
AnchorPoint: "top" 561 784 basechar 0
LayerCount: 2
Back
SplineSet
276.396484375 206.4609375 m 5
 233.549804688 179.208984375 179.967773438 175.909179688 120.145507812 186.521484375 c 1029
533.82421875 329 m 4
 533.82421875 358 565.82421875 379 595.236328125 379 c 4
 648.82421875 379 688.82421875 168 766 168 c 4
 845.999023438 168 817.82421875 378.862304688 817.82421875 489 c 4
 817.82421875 588.71484375 858.504882812 619.245117188 921.865234375 619 c 1028
622 230 m 5
 587.333984375 208.9765625 538 176 538 176 c 1029
114.337890625 386.66015625 m 4
 109.048828125 424.291015625 148.174804688 448.9765625 167.21875 451.65234375 c 4
 309.997070312 471.71875 340 175.579101562 381.552734375 175.579101562 c 4
 449 175.579101562 443.730715684 425.746128455 428.40234375 534.811523438 c 4
 414.524414062 633.556640625 456 683 608 697 c 1028
EndSplineSet
Fore
SplineSet
276.396484375 238.954564593 m 0
 284.716084001 238.954564593 293.035683628 235.783679025 299.377454764 229.441907889 c 0
 305.7192259 223.100136753 308.890111468 214.780537126 308.890111468 206.4609375 c 0
 308.890111468 195.435298316 302.543331179 184.567757286 293.824833796 179.022494882 c 0
 259.119235439 156.948547811 219.861806151 148.417439377 178.853920815 148.417439377 c 0
 157.717757288 148.417439377 136.116576812 150.683768782 114.433951997 154.530206535 c 0
 108.106649264 155.652652564 102.04896303 158.656088381 97.1645374239 163.540513986 c 0
 90.8227662879 169.882285122 87.6518807199 178.201884749 87.6518807199 186.521484375 c 0
 87.6518807199 194.841084001 90.8227662879 203.160683628 97.1645374239 209.502454764 c 0
 103.50630856 215.8442259 111.825908186 219.015111468 120.145507812 219.015111468 c 0
 122.057360364 219.015111468 123.969212916 218.847661717 125.857063628 218.512762215 c 0
 144.820782939 215.148650788 162.428898028 213.415070142 178.711049433 213.415070142 c 0
 210.419017129 213.415070142 237.09841059 219.989487739 258.968134954 233.899380118 c 0
 264.266785634 237.269503101 270.331635005 238.954564593 276.396484375 238.954564593 c 0
850.317845843 489 m 0
 850.317845843 438.29736023 855.167315054 376.919854887 855.167315054 323.095806555 c 0
 855.167315054 276.508871356 852.750577264 232.823509393 840.609094977 197.549487559 c 0
 835.466812133 182.609878618 828.341726729 168.309496009 816.424854623 156.392623903 c 0
 803.645441168 143.613210449 785.605828074 135.506372907 766 135.506372907 c 0
 739.318827278 135.506372907 718.309545293 149.373050155 702.746261079 164.936334369 c 0
 661.763865743 205.918729706 639.700937227 271.861814041 610.097452959 322.245523662 c 0
 603.083094875 334.183624519 597.852564431 341.783387542 592.384955186 346.350419363 c 1
 584.355420284 345.504449468 575.128816006 341.329219725 570.391247099 336.591650818 c 0
 566.848976577 333.049380296 566.317845843 330.570520038 566.317845843 329 c 0
 566.317845843 320.680400374 563.146960275 312.360800747 556.805189139 306.019029611 c 0
 550.463418003 299.677258475 542.143818376 296.506372907 533.82421875 296.506372907 c 0
 525.504619124 296.506372907 517.185019497 299.677258475 510.843248361 306.019029611 c 0
 504.501477225 312.360800747 501.330591657 320.680400374 501.330591657 329 c 0
 501.330591657 351.050358144 511.41436482 369.538650093 524.429306321 382.553591595 c 0
 543.216909773 401.341195047 568.951593831 411.493627093 595.236328125 411.493627093 c 0
 615.394416751 411.493627093 630.023748602 400.772934329 640.049851661 390.746831269 c 0
 650.478945907 380.317737023 658.457299864 368.273118945 666.161258753 355.16135061 c 0
 686.195997029 321.063187485 704.74197797 276.802320445 724.696037968 243.553488172 c 0
 733.001922047 229.713650733 741.422714222 218.18376278 748.708201856 210.898275146 c 0
 757.777831107 201.828645895 763.385678631 200.493627093 766 200.493627093 c 0
 768.621919186 200.493627093 768.634502929 200.526153763 770.462913846 202.354564681 c 0
 772.397233889 204.288884724 776.026539343 209.655422954 779.165190284 218.77398354 c 0
 787.932774058 244.245992157 790.105533165 285.392830222 790.105533165 322.553986105 c 0
 790.105533165 375.856057449 785.330591657 437.26486004 785.330591657 489 c 0
 785.330591657 545.267353801 796.994987889 588.501584448 825.808858274 617.315454833 c 0
 851.883653774 643.390250333 886.655015143 651.495039338 921.136504807 651.495039338 c 0
 930.080425207 651.495039338 938.258917532 648.56825762 944.846204764 641.980970389 c 0
 951.1879759 635.639199253 954.358861468 627.319599626 954.358861468 619 c 0
 954.358861468 610.680400374 951.1879759 602.360800747 944.846204764 596.019029611 c 0
 938.504433628 589.677258475 930.184834001 586.506372907 921.865234375 586.506372907 c 0
 921.605065416 586.506372907 921.34403214 586.507885628 921.085225021 586.507885628 c 0
 895.97739858 586.507885628 881.27334028 580.856055285 871.770799051 571.353514056 c 0
 861.027818459 560.610533463 850.317845843 537.314465064 850.317845843 489 c 0
622 262.493627093 m 0
 630.319599626 262.493627093 638.639199253 259.322741525 644.980970389 252.980970389 c 0
 651.322741525 246.639199253 654.493627093 238.319599626 654.493627093 230 c 0
 654.493627093 218.692905132 647.846752792 207.658362871 638.843579521 202.198328103 c 0
 605.053719475 181.706241026 556.043044544 148.962410685 556.043044544 148.962410685 c 2
 550.601440545 145.325052167 544.300720273 143.506372907 538 143.506372907 c 0
 529.680400374 143.506372907 521.360800747 146.677258475 515.019029611 153.019029611 c 0
 508.677258475 159.360800747 505.506372907 167.680400374 505.506372907 176 c 0
 505.506372907 186.73762104 511.498059194 197.383367072 519.956955456 203.037589315 c 0
 520.155534249 203.170326329 569.461087994 236.153998289 605.156420479 257.801671897 c 0
 610.314200287 260.929642027 616.157100143 262.493627093 622 262.493627093 c 0
146.339751469 393.627105379 m 0
 146.339751469 391.311626156 146.831517718 388.991613253 146.831517718 386.66015625 c 0
 146.831517718 378.340556624 143.66063215 370.020956997 137.318861014 363.679185861 c 0
 130.977089878 357.337414725 122.657490251 354.166529157 114.337890625 354.166529157 c 0
 106.018290999 354.166529157 97.6986913724 357.337414725 91.3569202364 363.679185861 c 0
 83.6674237067 371.368682391 81.3594357391 380.163865115 81.3594357391 393.487697166 c 0
 81.3594357391 419.51618043 94.0810123823 440.662441167 108.004392465 454.58582125 c 0
 117.367678125 463.94910691 127.548341477 470.794274216 137.607249685 475.72922419 c 0
 150.144703581 481.880160903 162.964661641 485.085281485 180.435574437 485.085281485 c 0
 218.607715617 485.085281485 250.728461575 467.409715274 274.870094062 443.268082787 c 0
 318.529671662 399.608505187 346.001283064 327.360380382 368.099100078 267.320457609 c 0
 374.860298287 248.950235249 380.934175787 232.582362152 386.167632377 220.660603173 c 1
 388.114524131 225.168008551 390.150086717 230.752645693 391.955439511 237.329377183 c 0
 401.646569716 272.633258721 405.597784198 330.579481653 405.597784198 379.966752116 c 0
 405.597784198 436.096707014 401.487992827 492.824872171 396.226966216 530.25845923 c 0
 394.467457157 542.777828629 393.480100014 555.118169078 393.480100014 567.144704291 c 0
 393.480100014 605.915458759 403.741384369 641.424936615 431.47409795 669.157650196 c 0
 468.048276273 705.73182852 525.185386419 722.004530322 604.998066218 729.355698198 c 0
 605.996408694 729.447650794 606.998204347 729.493627093 608 729.493627093 c 0
 616.319599626 729.493627093 624.639199253 726.322741525 630.980970389 719.980970389 c 0
 637.322741525 713.639199253 640.493627093 705.319599626 640.493627093 697 c 0
 640.493627093 688.680400374 637.322741525 680.360800747 630.980970389 674.019029611 c 0
 625.402836812 668.440896035 618.294513381 665.315986765 611.001933782 664.644301802 c 0
 535.94710276 657.73135684 495.583642189 641.343312881 477.436038727 623.195709419 c 0
 465.132272133 610.891942825 458.302020304 594.568098245 458.302020304 568.512394909 c 0
 458.302020304 559.92241058 459.044382517 550.274695967 460.577721284 539.364587645 c 0
 466.336159988 498.391782805 470.648021747 440.222423481 470.648021747 381.365349777 c 0
 470.648021747 323.533606067 466.947756533 264.965477789 454.616741892 220.044743995 c 0
 448.554780747 197.961586134 440.694152858 177.607484756 424.780935156 161.694267054 c 0
 414.274524306 151.187856204 399.034155093 143.08547447 381.552734375 143.08547447 c 0
 366.28615841 143.08547447 355.687290118 151.014096591 349.474722157 157.226664552 c 0
 339.106802424 167.594584285 333.778197285 178.747154406 328.127962545 191.193223332 c 0
 321.056778376 206.769292224 314.397146272 225.019060231 307.114660474 244.805624879 c 0
 288.133799246 296.376757068 263.700973187 362.513322108 228.908153285 397.30614201 c 0
 213.567611972 412.646683323 199.02857349 420.177775017 181.403478806 420.177775017 c 0
 174.635851092 420.177775017 172.307935229 420.338585305 166.259792595 417.371336701 c 0
 162.254169276 415.406158146 157.492925058 412.150472289 153.966333242 408.623880473 c 0
 148.471644042 403.129191272 146.339751469 398.413143085 146.339751469 393.627105379 c 0
EndSplineSet
EndChar

StartChar: NameMe.36
Encoding: 36 -1 36
Width: 850
Flags: MW
AnchorPoint: "top" 480 752 basechar 0
AnchorPoint: "bottom" 446 -22 basechar 0
LayerCount: 2
Back
SplineSet
382.637695312 563.150390625 m 4
 382.637695312 595.450195312 424.819335938 611.600585938 444.049804688 611.600585938 c 4
 588.23046875 611.600585938 525.331054688 351.5 637.680664062 351.5 c 4
 748.9453125 351.5 714.265625 557.083007812 714.265625 650.700195312 c 4
 714.265625 735.458007812 754.946289062 761.408203125 818.305664062 761.200195312 c 1028
314 394 m 5
 371.762695312 377.991210938 425.284179688 374.430664062 471.505859375 392.299804688 c 1029
57.25 94 m 4
 101.143554688 111.521484375 173.62890625 184.176757812 216.200195312 228 c 1028
138 594 m 4
 149.2578125 424.6171875 148.28125 195.84375 331.799804688 186 c 4
 467.7421875 178.708007812 577.450195312 292 577.450195312 292 c 1028
EndSplineSet
Fore
SplineSet
746.759252093 650.700195312 m 0
 746.759252093 608.110194686 751.921638231 558.152397082 751.921638231 511.566639351 c 0
 751.921638231 490.895445369 751.095466466 470.073144801 748.766088902 450.051511144 c 0
 744.374874334 412.307827699 735.124407992 374.159907818 707.928241344 346.963741171 c 0
 690.228477311 329.263977137 665.571882873 319.006372907 637.680664062 319.006372907 c 0
 612.165570663 319.006372907 589.850300937 329.140596414 573.980331147 345.010566205 c 0
 530.803236665 388.187660686 528.56334595 469.592400476 504.344026646 529.282619233 c 0
 498.092690186 544.689478365 490.836659883 556.631046478 483.139001952 564.32870441 c 0
 473.893709167 573.573997194 463.382529588 579.106958845 444.049804688 579.106958845 c 0
 443.263140471 579.106958845 436.193992518 578.035841174 429.870048847 575.302459194 c 0
 424.784252677 573.104238539 420.208474009 570.036318957 417.831627858 567.659472806 c 0
 415.131322405 564.959167353 415.131322405 563.848092303 415.131322405 563.150390625 c 0
 415.131322405 554.830790999 411.960436837 546.511191372 405.618665701 540.169420236 c 0
 399.276894565 533.8276491 390.957294939 530.656763532 382.637695312 530.656763532 c 0
 374.318095686 530.656763532 365.99849606 533.8276491 359.656724924 540.169420236 c 0
 353.314953788 546.511191372 350.14406822 554.830790999 350.14406822 563.150390625 c 0
 350.14406822 600.546138636 378.31686281 623.843421848 404.036782162 634.960276729 c 0
 417.668980602 640.852486953 430.782622108 644.09421303 444.049804688 644.09421303 c 0
 479.132659202 644.09421303 508.288798628 631.102789288 529.100942729 610.290645187 c 0
 562.097372094 577.294215821 575.069865195 526.915270025 587.35857546 477.263586766 c 0
 592.972940036 454.579135295 598.324550894 433.504738287 604.605827994 417.519896739 c 0
 609.658643992 404.661291423 615.249114129 395.665664776 619.942271924 390.972506982 c 0
 624.808237015 386.106541891 628.718460428 383.993627093 637.680664062 383.993627093 c 0
 650.208838359 383.993627093 656.34172265 387.301104031 661.966300567 392.925681948 c 0
 671.473107816 402.432489197 680.440529204 425.15331296 684.217189299 457.614733578 c 0
 686.133117065 474.082653777 686.837085784 492.26167783 686.837085784 511.026559372 c 0
 686.837085784 556.737029948 681.771997907 606.994337857 681.771997907 650.700195312 c 0
 681.771997907 696.533198441 692.461724321 733.75326142 718.057349694 759.348886792 c 0
 744.889470073 786.181007171 781.275939423 793.695072854 817.545678657 793.695072854 c 0
 826.507544474 793.695072854 834.687773215 790.780026937 841.286634451 784.181165701 c 0
 847.628405587 777.839394565 850.799291155 769.519794939 850.799291155 761.200195312 c 0
 850.799291155 752.880595686 847.628405587 744.56099606 841.286634451 738.219224924 c 0
 834.944863315 731.877453788 826.625263689 728.70656822 818.305664062 728.70656822 c 0
 818.056553594 728.70656822 817.80683708 728.707796639 817.558940157 728.707796639 c 0
 789.392216321 728.707796639 773.181260121 722.548915665 764.019290471 713.386946015 c 0
 755.296704624 704.664360168 746.759252093 687.27312971 746.759252093 650.700195312 c 0
281.506372907 394 m 0
 281.506372907 402.319599626 284.677258475 410.639199253 291.019029611 416.980970389 c 0
 297.360800747 423.322741525 305.680400374 426.493627093 314 426.493627093 c 0
 316.935343495 426.493627093 319.87068699 426.098903054 322.719162822 425.309454977 c 0
 352.011719159 417.19109497 378.843458001 412.911540154 403.110888639 412.911540154 c 0
 423.895855263 412.911540154 442.799681139 416.050961902 459.757341628 422.606734474 c 0
 463.528193458 424.064532678 467.517026417 424.79343178 471.505859375 424.79343178 c 0
 479.825459001 424.79343178 488.145058628 421.622546212 494.486829764 415.280775076 c 0
 500.8286009 408.93900394 503.999486468 400.619404314 503.999486468 392.299804688 c 0
 503.999486468 378.735570203 494.753918982 366.438557793 483.254377122 361.992874901 c 0
 457.541907638 352.052523617 430.666227802 347.82767695 403.164330249 347.82767695 c 0
 371.103941603 347.82767695 338.19253721 353.569148235 305.280837178 362.690545023 c 0
 300.055921086 364.138617679 295.123280015 366.914779208 291.019029611 371.019029611 c 0
 284.677258475 377.360800747 281.506372907 385.680400374 281.506372907 394 c 0
57.25 61.5063729074 m 0
 48.9304003737 61.5063729074 40.6108007474 64.6772584754 34.2690296114 71.0190296114 c 0
 27.9272584754 77.3608007474 24.7563729074 85.6804003737 24.7563729074 94 c 0
 24.7563729074 107.429788028 33.8428119565 119.655075045 45.1735668171 124.178100023 c 0
 55.2388809295 128.195984772 73.5686726754 140.174550905 93.0231190906 156.055966623 c 0
 126.847871056 183.668417579 162.333667959 219.192106649 192.882665999 250.639501576 c 0
 199.178314316 257.120294782 207.714381463 260.493627093 216.200195312 260.493627093 c 0
 224.519794939 260.493627093 232.839394565 257.322741525 239.181165701 250.980970389 c 0
 245.522936837 244.639199253 248.693822405 236.319599626 248.693822405 228 c 0
 248.693822405 219.828899896 245.635123145 211.657799792 239.517724626 205.360498424 c 0
 206.958796969 171.844065084 171.673587806 136.347696219 134.079531599 105.658216683 c 0
 112.196194361 87.7940036102 91.1263842606 72.5240318709 69.3264331829 63.821899977 c 0
 65.4593059509 62.2782152639 61.3546529755 61.5063729074 57.25 61.5063729074 c 0
105.506372907 594 m 0
 105.506372907 602.319599626 108.677258475 610.639199253 115.019029611 616.980970389 c 0
 121.360800747 623.322741525 129.680400374 626.493627093 138 626.493627093 c 0
 146.319599626 626.493627093 154.639199253 623.322741525 160.980970389 616.980970389 c 0
 166.770785725 611.191155052 169.917651568 603.752809456 170.421567916 596.170984094 c 0
 178.79410407 470.199466851 181.290877774 320.427050975 247.759926662 253.958002087 c 0
 269.849157519 231.86877123 299.379699916 218.159949079 344.306754779 218.159949079 c 0
 389.74587657 218.159949079 432.904640666 233.336843791 468.645262977 252.472183901 c 0
 517.606137525 278.68557712 549.602613076 310.114358541 554.469224924 314.980970389 c 0
 560.81099606 321.322741525 569.130595686 324.493627093 577.450195312 324.493627093 c 0
 585.769794939 324.493627093 594.089394565 321.322741525 600.431165701 314.980970389 c 0
 606.772936837 308.639199253 609.943822405 300.319599626 609.943822405 292 c 0
 609.943822405 283.100716059 606.108986913 274.688710361 599.69264763 268.272371077 c 0
 592.833112808 261.412836255 555.830337293 225.406339841 499.331640551 195.157236496 c 0
 457.609157162 172.819239611 404.378361585 153.16501158 344.567653257 153.16501158 c 0
 282.498474847 153.16501158 236.223278684 173.570768511 201.797985885 207.996061309 c 0
 164.625419488 245.168627706 144.45326291 295.187748877 131.839200424 348.080134259 c 0
 112.793289338 427.942087548 111.053821928 509.447387038 105.578432084 591.829015906 c 0
 105.530392633 592.551807953 105.506372907 593.275903976 105.506372907 594 c 0
EndSplineSet
EndChar

StartChar: NameMe.37
Encoding: 37 -1 37
Width: 850
Flags: MW
AnchorPoint: "top" 480 752 basechar 0
AnchorPoint: "bottom" 446 -22 basechar 0
LayerCount: 2
Back
SplineSet
125 114 m 4
 176.63898182 131.521793047 261.916143451 204.17662552 312 248 c 1028
220 614 m 4
 233.244284914 444.617543668 232.095557667 215.843732565 448 206 c 4
 607.931720407 198.70823209 737 312 737 312 c 1028
464 612 m 4
 521.852539062 608.596679688 518 440 564 440 c 5
 614 440 641 618 666 618 c 1028
EndSplineSet
Fore
SplineSet
125 81.5063729074 m 0
 116.680400374 81.5063729074 108.360800747 84.6772584754 102.019029611 91.0190296114 c 0
 95.6772584754 97.3608007474 92.5063729074 105.680400374 92.5063729074 114 c 0
 92.5063729074 122.319599626 95.6772584754 130.639199253 102.019029611 136.980970389 c 0
 105.659603366 140.621544143 109.951966329 143.217159243 114.521950681 144.76781569 c 0
 131.092323881 150.390363611 159.505690061 167.545079134 188.517312769 188.87078908 c 0
 224.870448681 215.593059666 263.033299709 248.34054766 290.61898995 272.478026621 c 0
 296.726114119 277.821760269 304.363057059 280.493627093 312 280.493627093 c 0
 320.319599626 280.493627093 328.639199253 277.322741525 334.980970389 270.980970389 c 0
 341.322741525 264.639199253 344.493627093 256.319599626 344.493627093 248 c 0
 344.493627093 238.897282675 340.380548231 229.646569287 333.38101005 223.521973379 c 0
 305.317970793 198.966814029 266.107829925 165.22446742 226.968473169 136.454116376 c 0
 195.586101743 113.385729019 164.808993292 93.1845635416 135.478049319 83.2321843105 c 0
 132.087256933 82.0816433751 128.543628467 81.5063729074 125 81.5063729074 c 0
187.506372907 614 m 0
 187.506372907 622.319599626 190.677258475 630.639199253 197.019029611 636.980970389 c 0
 203.360800747 643.322741525 211.680400374 646.493627093 220 646.493627093 c 0
 228.319599626 646.493627093 236.639199253 643.322741525 242.980970389 636.980970389 c 0
 248.673837889 631.288102888 251.811524851 624.001450698 252.394031273 616.551719038 c 0
 258.402069381 539.714331512 261.408839888 460.444591223 279.091731877 392.339831084 c 0
 290.795240898 347.264360677 308.511994688 309.702774622 334.513638465 283.701130845 c 0
 362.078256766 256.136512544 401.985674986 238.157167226 462.824338415 238.157167226 c 0
 602.246533342 238.157167226 715.580475468 336.444273213 715.580475468 336.444273213 c 1
 721.693989008 341.810509133 729.346994504 344.493627093 737 344.493627093 c 0
 745.319599626 344.493627093 753.639199253 341.322741525 759.980970389 334.980970389 c 0
 766.322741525 328.639199253 769.493627093 320.319599626 769.493627093 312 c 0
 769.493627093 302.916408632 765.402697102 293.685320061 758.419524532 287.555726787 c 0
 756.959118463 286.273831613 715.116023943 249.57286232 648.284640888 217.843348019 c 0
 598.681427207 194.293246167 534.672541267 173.165938095 462.985792027 173.165938095 c 0
 385.949122743 173.165938095 329.19918465 197.091703106 288.551697688 237.739190068 c 0
 250.824877404 275.466010353 229.54838934 324.507162418 216.197840489 375.926123055 c 0
 195.919155595 454.028447686 193.850852362 531.581852798 187.605968727 611.448280962 c 0
 187.539571514 612.297441417 187.506372907 613.148720708 187.506372907 614 c 0
666 650.493627093 m 0
 674.319599626 650.493627093 682.639199253 647.322741525 688.980970389 640.980970389 c 0
 695.322741525 634.639199253 698.493627093 626.319599626 698.493627093 618 c 0
 698.493627093 606.352917245 691.482367464 595.123767793 682.124579257 589.774913317 c 1
 674.579424389 575.451883343 669.921795965 560.442804226 663.076206134 540.90133419 c 0
 655.631941317 519.650882224 647.360237126 495.836586202 637.394272339 474.184222176 c 0
 629.427008129 456.874296981 620.708244675 440.524370507 607.181306506 426.997432337 c 0
 597.46285684 417.278982672 583.028608344 407.506372907 564 407.506372907 c 0
 548.167432092 407.506372907 534.956108597 415.189395129 526.424684918 423.720818808 c 0
 515.339689599 434.805814127 509.63822377 447.20988127 504.676002871 459.698937687 c 0
 492.772390482 489.658282451 484.927891919 530.325464714 473.374198062 558.547807308 c 0
 468.697636439 569.97129887 464.328703833 576.999777151 461.083064424 579.6365841 c 0
 453.760738132 580.291744673 446.61883296 583.419226262 441.019029611 589.019029611 c 0
 434.677258475 595.360800747 431.506372907 603.680400374 431.506372907 612 c 0
 431.506372907 620.319599626 434.677258475 628.639199253 441.019029611 634.980970389 c 0
 447.360800747 641.322741525 455.680400374 644.493627093 464 644.493627093 c 0
 482.368721079 644.493627093 497.6407025 635.070885105 507.819124868 624.892462737 c 0
 520.259957174 612.451630431 527.502668518 597.919775214 533.518100369 583.225809746 c 0
 546.097294708 552.498465178 553.624281528 512.563804324 565.070498993 483.755643904 c 0
 565.599011736 482.425468243 566.131986171 481.17891684 566.656437537 480.02064449 c 1
 589.0318579 513.709997357 601.380217813 567.717346103 618.578271435 607.534201163 c 0
 623.199342395 618.232883507 627.208634828 627.987264465 637.164783019 637.943412656 c 0
 642.145352483 642.92398212 651.444739695 650.493627093 666 650.493627093 c 0
EndSplineSet
EndChar

StartChar: uni300C
Encoding: 40 12300 40
Width: 258
Flags: HW
LayerCount: 2
Back
SplineSet
52 586 m 29
 52 770 l 29
 200 770 l 1053
EndSplineSet
Fore
SplineSet
84.4936270926 737.506372907 m 1
 84.4936270926 586 l 2
 84.4936270926 577.680400374 81.3227415246 569.360800747 74.9809703886 563.019029611 c 0
 68.6391992526 556.677258475 60.3195996263 553.506372907 52 553.506372907 c 0
 43.6804003737 553.506372907 35.3608007474 556.677258475 29.0190296114 563.019029611 c 0
 22.6772584754 569.360800747 19.5063729074 577.680400374 19.5063729074 586 c 2
 19.5063729074 770 l 2
 19.5063729074 778.319599626 22.6772584754 786.639199253 29.0190296114 792.980970389 c 0
 35.3608007474 799.322741525 43.6804003737 802.493627093 52 802.493627093 c 2
 200 802.493627093 l 2
 208.319599626 802.493627093 216.639199253 799.322741525 222.980970389 792.980970389 c 0
 229.322741525 786.639199253 232.493627093 778.319599626 232.493627093 770 c 0
 232.493627093 761.680400374 229.322741525 753.360800747 222.980970389 747.019029611 c 0
 216.639199253 740.677258475 208.319599626 737.506372907 200 737.506372907 c 2
 84.4936270926 737.506372907 l 1
EndSplineSet
Substitution2: "'valt' Alternate Vertical Metrics in Latin lookup 0-1" uni300C.valt
EndChar

StartChar: uni1736
Encoding: 44 5942 44
Width: 258
Flags: HW
LayerCount: 2
Back
SplineSet
200 742 m 29
 200 44 l 1053
60 742 m 29
 60 44 l 1053
EndSplineSet
Fore
SplineSet
167.506372907 742 m 2
 167.506372907 750.319599626 170.677258475 758.639199253 177.019029611 764.980970389 c 0
 183.360800747 771.322741525 191.680400374 774.493627093 200 774.493627093 c 0
 208.319599626 774.493627093 216.639199253 771.322741525 222.980970389 764.980970389 c 0
 229.322741525 758.639199253 232.493627093 750.319599626 232.493627093 742 c 2
 232.493627093 44 l 2
 232.493627093 35.6804003737 229.322741525 27.3608007474 222.980970389 21.0190296114 c 0
 216.639199253 14.6772584754 208.319599626 11.5063729074 200 11.5063729074 c 0
 191.680400374 11.5063729074 183.360800747 14.6772584754 177.019029611 21.0190296114 c 0
 170.677258475 27.3608007474 167.506372907 35.6804003737 167.506372907 44 c 2
 167.506372907 742 l 2
27.5063729074 742 m 2
 27.5063729074 750.319599626 30.6772584754 758.639199253 37.0190296114 764.980970389 c 0
 43.3608007474 771.322741525 51.6804003737 774.493627093 60 774.493627093 c 0
 68.3195996263 774.493627093 76.6391992526 771.322741525 82.9809703886 764.980970389 c 0
 89.3227415246 758.639199253 92.4936270926 750.319599626 92.4936270926 742 c 2
 92.4936270926 44 l 2
 92.4936270926 35.6804003737 89.3227415246 27.3608007474 82.9809703886 21.0190296114 c 0
 76.6391992526 14.6772584754 68.3195996263 11.5063729074 60 11.5063729074 c 0
 51.6804003737 11.5063729074 43.3608007474 14.6772584754 37.0190296114 21.0190296114 c 0
 30.6772584754 27.3608007474 27.5063729074 35.6804003737 27.5063729074 44 c 2
 27.5063729074 742 l 2
EndSplineSet
Substitution2: "'valt' Alternate Vertical Metrics in Latin lookup 0-1" uni1736.valt
EndChar

StartChar: kuli_dep_u
Encoding: 46 -1 46
Width: 850
Flags: HWO
LayerCount: 2
Back
SplineSet
268 299 m 4
 329 258 329.0390625 82 360 82 c 4
 488 82 562 240 562 320 c 1028
EndSplineSet
Fore
SplineSet
235.506372907 299 m 4
 235.506372907 307.319599626 238.677258475 315.639199253 245.019029611 321.980970389 c 4
 251.360800747 328.322741525 259.680400374 331.493627093 268 331.493627093 c 4
 282.095677527 331.493627093 292.781232027 321.769882532 300.349343606 314.201770952 c 4
 335.646777234 278.904337325 349.005860072 217.457731213 361.181873412 163.933023406 c 4
 365.725694821 143.958775149 368.660886969 129.264809355 373.71635854 115.271500376 c 5
 444.077661965 123.325947321 492.616280642 192.841107426 514.77647413 251.515846677 c 4
 524.729231432 277.868298872 529.506372907 303.141694412 529.506372907 320 c 4
 529.506372907 328.319599626 532.677258475 336.639199253 539.019029611 342.980970389 c 4
 545.360800747 349.322741525 553.680400374 352.493627093 562 352.493627093 c 4
 570.319599626 352.493627093 578.639199253 349.322741525 584.980970389 342.980970389 c 4
 591.322741525 336.639199253 594.493627093 328.319599626 594.493627093 320 c 4
 594.493627093 292.24455817 587.763846854 260.77528881 575.569934543 228.488809647 c 4
 560.349898 188.189898176 536.312152128 146.394852872 502.539109494 112.621810237 c 4
 466.540244266 76.6229450095 418.299825513 49.5063729074 360 49.5063729074 c 4
 338.181861991 49.5063729074 325.719144274 64.7567967611 318.832723635 78.1662069852 c 4
 315.539154005 84.5795280086 313.135689097 91.0496332604 310.923088588 97.9033232697 c 4
 305.975341654 113.229327037 302.066215063 130.775465915 297.820860568 149.437679279 c 4
 291.75252544 176.113558775 285.085493074 204.89858287 276.489281438 228.20827972 c 4
 269.578405303 246.947979775 261.28253335 261.344699654 254.387402829 268.239830175 c 4
 251.094869288 271.532363716 248.161429479 272.876629744 245.019029611 276.019029611 c 4
 238.677258475 282.360800747 235.506372907 290.680400374 235.506372907 299 c 4
EndSplineSet
EndChar
